<?xml version="1.0" standalone="no"?>
<!DOCTYPE svg PUBLIC "-//W3C//DTD SVG 1.1//EN" "http://www.w3.org/Graphics/SVG/1.1/DTD/svg11.dtd" >
<!--
2013-9-30: Created.
-->
<svg>
<metadata>
Created by iconfont
</metadata>
<defs>

<font id="iconfont" horiz-adv-x="1024" >
  <font-face
    font-family="iconfont"
    font-weight="500"
    font-stretch="normal"
    units-per-em="1024"
    ascent="896"
    descent="-128"
  />
    <missing-glyph />
    
    <glyph glyph-name="x" unicode="x" horiz-adv-x="1001"
d="M281 543q-27 -1 -53 -1h-83q-18 0 -36.5 -6t-32.5 -18.5t-23 -32t-9 -45.5v-76h912v41q0 16 -0.5 30t-0.5 18q0 13 -5 29t-17 29.5t-31.5 22.5t-49.5 9h-133v-97h-438v97zM955 310v-52q0 -23 0.5 -52t0.5 -58t-10.5 -47.5t-26 -30t-33 -16t-31.5 -4.5q-14 -1 -29.5 -0.5
t-29.5 0.5h-32l-45 128h-439l-44 -128h-29h-34q-20 0 -45 1q-25 0 -41 9.5t-25.5 23t-13.5 29.5t-4 30v167h911zM163 247q-12 0 -21 -8.5t-9 -21.5t9 -21.5t21 -8.5q13 0 22 8.5t9 21.5t-9 21.5t-22 8.5zM316 123q-8 -26 -14 -48q-5 -19 -10.5 -37t-7.5 -25t-3 -15t1 -14.5
t9.5 -10.5t21.5 -4h37h67h81h80h64h36q23 0 34 12t2 38q-5 13 -9.5 30.5t-9.5 34.5q-5 19 -11 39h-368zM336 498v228q0 11 2.5 23t10 21.5t20.5 15.5t34 6h188q31 0 51.5 -14.5t20.5 -52.5v-227h-327z" />
    

    
    <glyph glyph-name="bianji" unicode="&#58880;" d="M358.165868 341.375204c-0.533143-0.680499-1.066285-1.391696-1.303692-2.251274l-41.104163-150.700257c-2.400676-8.772804 0.059352-18.226107 6.550183-24.892947 4.860704-4.742001 11.261485-7.350408 18.077727-7.350408 2.252297 0 4.504594 0.267083 6.727215 0.860601l149.630902 40.808428c0.23843 0 0.357134-0.207731 0.534166-0.207731 1.718131 0 3.408633 0.62217 4.683672 1.927909l400.113747 400.054395c11.883655 11.897981 18.404162 28.109198 18.404162 45.74281 0 19.989263-8.476045 39.963177-23.324218 54.767348l-37.786605 37.844933c-14.81645 14.848173-34.822087 23.338544-54.797024 23.338544-17.631566 0-33.842783-6.520507-45.75816-18.388812L358.758362 342.767923C358.344946 342.384184 358.462626 341.820342 358.165868 341.375204M862.924953 638.80222l-39.742143-39.71349-64.428382 65.451688 39.180348 39.179324c6.193049 6.222725 18.194384 5.318122 25.308409-1.822508l37.813211-37.845956c3.943822-3.941775 6.195096-9.18622 6.195096-14.372336C867.223862 645.425058 865.710392 641.57231 862.924953 638.80222M429.322487 335.092104l288.712541 288.728914 64.459081-65.49569L494.314711 270.161279 429.322487 335.092104zM376.718409 218.029968l20.863167 76.580143 55.656601-55.657624L376.718409 218.029968zM888.265084 480.264461c-15.144932 0-27.562752-12.313443-27.620058-27.665083l0-372.98283c0-19.559475-15.885805-35.444257-35.475979-35.444257L194.220958 44.172291c-19.559475 0-35.504632 15.883759-35.504632 35.444257L158.716326 688.397778c0 19.575848 15.945157 35.474956 35.504632 35.474956l406.367171 0c15.231913 0 27.592428 12.371772 27.592428 27.606755 0 15.202237-12.360516 27.590382-27.592428 27.590382L190.013123 779.069871c-47.684022 0-86.49291-38.779212-86.49291-86.49291L103.520213 75.40769c0-47.713698 38.808888-86.47756 86.49291-86.47756l639.334083 0c47.715745 0 86.509283 38.763862 86.509283 86.47756L915.856489 452.777433C915.794068 467.951017 903.408993 480.264461 888.265084 480.264461"  horiz-adv-x="1024" />

    
    <glyph glyph-name="kuaijiecaidan" unicode="&#58890;" d="M372.48997395 415.97408854L190.87014974 415.97408854C131.57386067 415.97408854 83.33333333 464.21461589 83.33333333 523.5100260500001L83.33333333 705.12985026C83.33333333 764.4261393300001 131.57386067 812.66666667 190.87014974 812.66666667l181.61982422 0c59.29541016 0 107.5359375-48.24052734 107.5359375-107.53681641l0-181.61982422C480.02591146 464.21461589 431.78538411 415.97408854 372.48997395 415.97408854zM190.87014974 756.41666667C162.59046224 756.41666667 139.58333333 733.40953776 139.58333333 705.12985026l0-181.61982422c0-28.27880859 23.00712891-51.2859375 51.28681641-51.2859375l181.61982421 0c28.27880859 0 51.2859375 23.00712891 51.2859375 51.2859375L423.77591145 705.12985026c0 28.2796875-23.00712891 51.28681641-51.28593749 51.28681641L190.87014974 756.41666667zM819.98597005 415.97408854L638.36702474 415.97408854c-59.29628906 0-107.53681641 48.24052734-107.53681641 107.5359375L530.83020833 705.12985026C530.83020833 764.4261393300001 579.07073567 812.66666667 638.36702474 812.66666667l181.61982421 0C879.28225911 812.66666667 927.52278646 764.4261393300001 927.52278646 705.12985026l-1e-8-181.61982422C927.52278646 464.21461589 879.28225911 415.97408854 819.98597005 415.97408854zM638.36702474 756.41666667c-28.2796875 0-51.28681641-23.00712891-51.28681641-51.28681641l0-181.61982421c0-28.27880859 23.00712891-51.2859375 51.28681641-51.2859375l181.61982421 0c28.2796875 0 51.28681641 23.00712891 51.28681641 51.28593749L871.27366536 705.12985026C871.27278646 733.40953776 848.26565755 756.41666667 819.98597005 756.41666667L638.36702474 756.41666667zM372.48997395-31.112337239999988L190.87014974-31.112337239999988C131.57386067-31.112337239999988 83.33333333 17.12819010999999 83.33333333 76.42360025999994L83.33333333 258.04342448c0 59.29628906 48.24052734 107.53681641 107.53681641 107.53681641l181.61982422 0c59.29541016 0 107.5359375-48.24052734 107.5359375-107.53681641l0-181.61982422C480.02591146 17.12819010999999 431.78538411-31.112337239999988 372.48997395-31.112337239999988zM190.87014974 309.32936198000004C162.59046224 309.32936198000004 139.58333333 286.32311198 139.58333333 258.04342448l0-181.61982422c0-28.2796875 23.00712891-51.28681641 51.28681641-51.2868164l181.61982421 0c28.27880859 0 51.2859375 23.00712891 51.2859375 51.2868164L423.77591145 258.04342448c0 28.2796875-23.00712891 51.28681641-51.28593749 51.28681641L190.87014974 309.33024089zM819.98597005-31.112337239999988L638.36702474-31.112337239999988c-59.29628906 0-107.53681641 48.24052734-107.53681641 107.53681641L530.83020833 258.04342448c0 59.29628906 48.24052734 107.53681641 107.53681641 107.53681641l181.61982422 0c59.29628906 0 107.53681641-48.24052734 107.5368164-107.53681641l0-181.61982422C927.52278646 17.12819010999999 879.28225911-31.112337239999988 819.98597005-31.112337239999988zM638.36702474 309.32936198000004c-28.2796875 0-51.28681641-23.00712891-51.28681641-51.2868164l0-181.61982422c0-28.2796875 23.00712891-51.28681641 51.28681641-51.28681641l181.61982421 0c28.2796875 0 51.28681641 23.00712891 51.28681641 51.28681641L871.27366536 258.04342448c0 28.2796875-23.00712891 51.28681641-51.2868164 51.28681641L638.36702474 309.33024089z"  horiz-adv-x="1024" />

    
    <glyph glyph-name="cart2" unicode="&#58920;" d="M1007.4 670.3c-4.6 5.9-11.7 9.7-19.2 9.7L201.2 680 167.8 855.5C165.6 867 155.5 875 143.7 875L34 875C20.5 875 9.6 864 9.6 850.5S20.5 826 34 826l89.5 0L155 650.6c0-0.1 0-0.2 0-0.4l98.8-513.6C256 125.10000000000002 267 117 278.7 117l587.2 0c13.5 0 24.5 11 24.5 24.5s-11 24.5-24.5 24.5L298.9 166l-15.1 77.2 612.3-3.2c0 0 0 0 0 0 11.3 0 21.2 9.5 23.8 20.5l92 389C1013.7 656.9 1012 664.5 1007.4 670.3zM876.8 292.29999999999995l-602.3 1.2-44.6 233.9L210.5 630l746.8 0L876.8 292.29999999999995zM353.1 66.60000000000002c-47.2 0-85.6-38.4-85.6-85.6s38.4-85.6 85.6-85.6c47.2 0 85.6 38.4 85.6 85.6S400.3 66.60000000000002 353.1 66.60000000000002zM353.1-55.799999999999955c-20.2 0-36.7 16.5-36.7 36.7 0 20.2 16.5 36.7 36.7 36.7 20.2 0 36.7-16.5 36.7-36.7C389.8-39.299999999999955 373.3-55.799999999999955 353.1-55.799999999999955zM769 66.60000000000002c-47.2 0-85.6-38.4-85.6-85.6s38.4-85.6 85.6-85.6c47.2 0 85.6 38.4 85.6 85.6S816.3 66.60000000000002 769 66.60000000000002zM769-55.799999999999955c-20.2 0-36.7 16.5-36.7 36.7 0 20.2 16.5 36.7 36.7 36.7 20.2 0 36.7-16.5 36.7-36.7C805.7-39.299999999999955 789.3-55.799999999999955 769-55.799999999999955z"  horiz-adv-x="1024" />

    
    <glyph glyph-name="more" unicode="&#58935;" d="M147.012 465.109c-44.791 0-81.108-36.304-81.108-81.109 0-44.779 36.316-81.108 81.108-81.108 44.792 0 81.109 36.329 81.109 81.108 0 44.805-36.316 81.109-81.109 81.109zM511.999 465.109c-44.791 0-81.108-36.304-81.108-81.109 0-44.779 36.316-81.108 81.108-81.108 44.792 0 81.109 36.329 81.109 81.108 0 44.805-36.317 81.109-81.109 81.109zM876.987 465.109c-44.791 0-81.108-36.304-81.108-81.109 0-44.779 36.316-81.108 81.108-81.108s81.108 36.329 81.108 81.108c-0.001 44.805-36.317 81.109-81.108 81.109z"  horiz-adv-x="1024" />

    
    <glyph glyph-name="wenhao" unicode="&#59180;" d="M512 832c-247.039484 0-448-200.960516-448-448S264.960516-64 512-64 960 136.96051599999998 960 384 759.039484 832 512 832zM512 63.64735900000005c-26.496224 0-48.00043 21.504206-48.00043 48.00043 0 26.496224 21.504206 48.00043 48.00043 48.00043s48.00043-21.504206 48.00043-48.00043S538.496224 63.64735900000005 512 63.64735900000005zM600.576482 390.815428c-27.839699-27.808735-56.575622-56.544658-56.575622-82.368284l0-54.112297c0-17.664722-14.336138-32.00086-32.00086-32.00086s-32.00086 14.336138-32.00086 32.00086l0 54.112297c0 52.352533 39.999785 92.352318 75.32751 127.647359 25.887273 25.887273 52.67249 52.639806 52.67249 73.984034 0 53.343368-43.07206 96.735385-95.99914 96.735385-53.823303 0-95.99914-41.535923-95.99914-94.559333 0-17.664722-14.336138-31.99914-32.00086-31.99914s-32.00086 14.336138-32.00086 31.99914c0 87.423948 71.775299 158.559333 160.00086 158.559333s160.00086-72.095256 160.00086-160.735385C672.00086 462.208843 635.680581 425.919527 600.576482 390.815428z"  horiz-adv-x="1024" />

    
    <glyph glyph-name="erweima" unicode="&#58886;" d="M363.096 284.732h-248.172c-27.386 0-49.634-22.249-49.634-49.634v-248.172c0-27.411 22.249-49.634 49.634-49.634h248.172c27.386 0 49.633 22.223 49.633 49.634v248.172c0.001 27.386-22.248 49.634-49.633 49.634v0 0zM363.096 11.744c0-13.695-11.1-24.817-24.817-24.817l-198.538 0c-13.717 0-24.817 11.122-24.817 24.817l0 198.537c0 13.716 11.1 24.817 24.817 24.817h198.538c13.717 0 24.817-11.101 24.817-24.817l-0-198.537zM524.408 284.732h-24.817c-6.835 0-12.457-5.55-12.457-12.41v-223.355c0-6.859 5.622-12.408 12.457-12.408h24.817c6.836 0 12.41 5.548 12.41 12.408l0 223.355c0 6.859-5.574 12.41-12.41 12.41v0 0zM499.591 483.269h24.817c6.836 0 12.41 5.55 12.41 12.409l0 322.623c0 6.859-5.574 12.409-12.41 12.409h-24.817c-6.835 0-12.457-5.549-12.457-12.409v-322.623c-0-6.858 5.622-12.409 12.457-12.409v0 0zM114.924 483.269h248.172c27.386 0 49.633 22.248 49.633 49.634l-0 248.196c0 27.387-22.248 49.61-49.633 49.61h-248.172c-27.386 0-49.634-22.224-49.634-49.61v-248.196c0-27.387 22.249-49.634 49.634-49.634v0 0zM114.924 756.257c0 13.693 11.1 24.841 24.817 24.841h198.538c13.717 0 24.817-11.149 24.817-24.841v-198.513c0-13.742-11.1-24.841-24.817-24.841l-198.538-0c-13.717 0-24.817 11.1-24.817 24.841l0 198.513zM673.359 210.257h-24.865c-6.834 0-12.408-5.526-12.408-12.386v-248.172c0-6.859 5.574-12.408 12.408-12.408h24.865c6.788 0 12.311 5.548 12.311 12.408v248.172c0.001 6.859-5.524 12.386-12.311 12.386v0 0zM946.252 408.841h-868.554c-6.835 0-12.409-5.599-12.409-12.432v-24.817c0-6.834 5.574-12.408 12.409-12.408h868.554c6.884 0 12.458 5.574 12.458 12.408l-0 24.817c0 6.835-5.574 12.432-12.458 12.432v0 0zM909.025 830.709h-248.121c-27.388 0-49.634-22.224-49.634-49.61v-248.196c0-27.387 22.247-49.634 49.634-49.634h248.122c27.483 0 49.685 22.248 49.685 49.634v248.196c-0.001 27.386-22.202 49.61-49.686 49.61v0 0zM909.025 557.744c0-13.742-11.099-24.841-24.767-24.841l-198.587-0c-13.668 0-24.767 11.1-24.767 24.841v198.513c0 13.693 11.099 24.841 24.767 24.841h198.587c13.668 0 24.767-11.149 24.767-24.841v-198.513zM797.348 210.257h-24.769c-6.884 0-12.408-5.526-12.408-12.386v-248.172c0-6.859 5.524-12.408 12.408-12.408h24.769c6.884 0 12.458 5.548 12.458 12.408v248.172c-0 6.859-5.574 12.386-12.458 12.386v0 0zM921.483 284.732h-24.769c-6.882 0-12.456-5.55-12.456-12.41v-322.623c0-6.859 5.574-12.408 12.456-12.408h24.769c6.884 0 12.41 5.548 12.41 12.408v322.623c0 6.859-5.526 12.41-12.41 12.41v0 0zM921.483 284.732z"  horiz-adv-x="1024" />

    
    <glyph glyph-name="gouxuan1" unicode="&#58952;" d="M512 834C264.5 834 62 631.5 62 384s202.5-450 450-450c247.5 0 450 202.5 450 450S759.5 834 512 834zM798.875 507.75l-337.5-337.5C455.75 164.625 438.875 159 427.625 159c-11.25 0-22.5 5.625-33.75 11.25L191.375 372.75C174.5 389.625 174.5 423.375 191.375 440.25c16.875 16.875 50.625 16.875 67.5 0l168.75-168.75 303.75 303.75c16.875 16.875 50.625 16.875 67.5 0C821.375 558.375 821.375 530.25 798.875 507.75z"  horiz-adv-x="1024" />

    
    <glyph glyph-name="fuxuan-after" unicode="&#59013;" d="M831.551408 831.37719L192.441429 831.37719c-70.301136 0-127.816061-57.516971-127.816061-127.819131l0-639.102816c0-70.308299 57.514925-127.833457 127.816061-127.833457l639.109979 0c70.293973 0 127.821177 57.525158 127.821177 127.833457L959.372585 703.5580600000001C959.372585 773.860219 901.846404 831.37719 831.551408 831.37719zM646.217353 409.560142c-108.652606-159.77903-204.521047-345.115132-204.521047-345.115132L192.444499 345.64853000000005l63.915705 70.303182 153.384389-146.993842c0 0 76.695776 127.822201 178.950671 236.468666 102.261035 108.652606 223.688595 198.12743 223.688595 198.12743l19.170618-63.915705C831.553455 639.639285 729.29856 530.991796 646.217353 409.560142z"  horiz-adv-x="1024" />

    
    <glyph glyph-name="fuxuan-before" unicode="&#59014;" d="M831.550385 767.468648c38.349423 0 63.910589-25.567305 63.910589-63.910589l0-639.102816c0-38.355563-25.561166-63.916728-63.910589-63.916728L192.441429 0.5385149999999612c-38.341237 0-63.908542 25.561166-63.908542 63.916728L128.532887 703.5580600000001c0 38.343283 25.567305 63.910589 63.908542 63.910589L831.550385 767.468648M831.550385 831.37719L192.441429 831.37719c-70.301136 0-127.816061-57.516971-127.816061-127.819131l0-639.102816c0-70.308299 57.514925-127.833457 127.816061-127.833457l639.108956 0c70.294996 0 127.822201 57.525158 127.822201 127.833457L959.372585 703.5580600000001C959.372585 773.860219 901.846404 831.37719 831.550385 831.37719L831.550385 831.37719 831.550385 831.37719zM831.550385 831.37719"  horiz-adv-x="1024" />

    
    <glyph glyph-name="select" unicode="&#59120;" d="M544 768C314.24 768 128 581.76 128 352 128 122.24000000000001 314.24-64 544-64c229.76 0 416 186.24 416 416C960 581.76 773.76 768 544 768zM544 0C349.44 0 192 157.44000000000005 192 352 192 546.56 349.44 704 544 704 738.56 704 896 546.56 896 352 896 157.44000000000005 738.56 0 544 0z"  horiz-adv-x="1024" />

    
    <glyph glyph-name="select-inp" unicode="&#59349;" d="M544 768C314.24 768 128 581.76 128 352 128 122.24000000000001 314.24-64 544-64c229.76 0 416 186.24 416 416C960 581.76 773.76 768 544 768zM544 0C349.44 0 192 157.44000000000005 192 352 192 546.56 349.44 704 544 704 738.56 704 896 546.56 896 352 896 157.44000000000005 738.56 0 544 0zM544 512C455.68 512 384 440.32 384 352 384 263.67999999999995 455.68 192 544 192 632.32 192 704 263.67999999999995 704 352 704 440.32 632.32 512 544 512z"  horiz-adv-x="1024" />

    
    <glyph glyph-name="qian" unicode="&#58917;" d="M504.953909-127.365671c-278.056792 0-503.461221 225.451752-503.461221 503.459207 0 278.058806 225.404429 503.461221 503.461221 503.461221 278.009469 0 503.461221-225.402416 503.461221-503.461221C1008.41513 98.086082 782.963378-127.365671 504.953909-127.365671L504.953909-127.365671 504.953909-127.365671zM504.953909 816.622231c-243.293526 0-440.526681-197.234162-440.526681-440.528694 0-243.292519 197.233155-440.479358 440.526681-440.479358 243.294533 0 440.480365 197.186839 440.480365 440.479358C945.434274 619.38807 748.248442 816.622231 504.953909 816.622231L504.953909 816.622231 504.953909 816.622231zM536.420676 61.430903l-62.933534 0L473.487142 218.811053 284.690569 218.811053l0 62.884197 188.796573 0 0 94.398287L284.690569 376.093537l0 62.934541 153.598339 0-154.082644 217.645473 53.96331 34.132964 156.022887-220.312677 35.732884 0L669.413377 679.025104l52.315061-35.005922L584.565272 439.028077l140.652984 0 0-62.934541-182.737217 0-6.06137-9.01654 0-85.381747 188.79758 0 0-62.884197L536.420676 218.811053 536.420676 61.430903 536.420676 61.430903 536.420676 61.430903z"  horiz-adv-x="1024" />

    
    <glyph glyph-name="user" unicode="&#59473;" d="M959.68-25.024c-15.232 181.696-139.648 331.968-307.84 386.624 70.464 45.632 117.248 124.48 117.248 214.464C769.152 717.376 654.208 832 512.512 832 370.752 832 255.808 717.376 255.808 576.0640000000001c0-89.984 46.784-168.832 117.248-214.528-168.192-54.592-292.544-204.864-307.84-386.56-0.192-3.456-0.64-5.44 0-10.176C66.496-51.200000000000045 80.64-64 96.704-64c17.92 0 32.064 14.656 32.064 32 16.704 197.76 182.272 351.936 383.744 351.936 201.408 0 366.976-154.176 383.68-351.936 0-17.344 14.144-32 32.064-32 16.064 0 30.208 12.8 31.424 28.8C960.32-30.464000000000055 959.936-28.416000000000054 959.68-25.024zM320 576.0640000000001C320 682.048 406.208 768 512.512 768s192.448-85.952 192.448-191.936c0-106.048-86.144-192-192.448-192S320 470.016 320 576.0640000000001z"  horiz-adv-x="1024" />

    
    <glyph glyph-name="icon01" unicode="&#58883;" d="M808.01792-5.12m-59.04384 0a2.883 2.883 0 1 0 118.08768 0 2.883 2.883 0 1 0-118.08768 0ZM430.10048 53.92384c-32.54272 0-59.04384-26.39872-59.04384-59.00288 0-32.62464 26.50112-59.0848 59.04384-59.0848 32.58368 0 59.00288 26.46016 59.00288 59.0848C489.10336 27.52512 462.68416 53.92384 430.10048 53.92384zM292.29056 255.0784l-58.18368 361.75872C196.95616 829.80864 16.09728 832.16384 14.29504 832.16384L14.1312 775.86432c5.50912-0.1024 135.5776-3.52256 164.31104-168.36608l57.87648-358.58432c2.9696-48.10752 36.18816-139.18208 140.86144-139.18208l553.2672 0 0 56.4224L377.18016 166.15424C300.9536 166.15424 293.2736 243.712 292.29056 255.0784zM832.38912 221.83936 476.93824 221.83936c-87.552 0-127.97952 69.46816-137.13408 106.1888-0.47104 2.29376-26.33728 157.34784-43.47904 267.01824-6.26688 39.97696 0.22528 71.5776 19.31264 93.88032 17.42848 20.39808 43.8272 31.15008 76.32896 31.15008 14.2336 0 24.30976-2.1504 24.30976-2.1504 1.80224-0.12288 407.90016-50.09408 500.16256-50.09408 39.99744 0 68.97664-12.1856 86.15936-36.18816 25.41568-35.55328 11.30496-79.95392 9.60512-84.8896l-43.49952-205.4144C966.84032 334.49984 933.15072 221.83936 832.38912 221.83936zM391.9872 660.13184c-8.23296 0-23.22432-1.31072-30.78144-10.1376-6.98368-8.15104-8.99072-24.3712-5.65248-45.6704 17.12128-109.42464 42.9056-264.11008 42.9056-264.11008 1.1264-3.72736 17.408-58.42944 78.45888-58.42944l355.45088 0c56.17664 0 78.00832 73.40032 78.2336 74.1376l43.95008 206.78656c2.94912 9.70752 5.28384 25.84576-0.79872 34.18112-5.16096 7.08608-18.41152 10.97728-37.29408 10.97728-95.92832 0-492.9536 48.8448-509.80864 50.93376C403.6608 659.33312 398.70464 660.13184 391.9872 660.13184z"  horiz-adv-x="1024" />

    
    <glyph glyph-name="shezhi" unicode="&#58984;" d="M635.635-126.928c-39.368 0-72.301 23.406-90.471 64.289-8.202 18.422-17.35 24.29-23.533 27.066-10.852 4.984-18.864 3.596-29.274-4.353-8.391-6.372-14.006-13.438-17.097-21.577-18.612-47.949-67.885-72.932-118.925-63.216-48.706 9.148-87.506 26.182-118.673 51.986-22.46 18.675-35.33 39.873-39.368 64.92-3.47 21.64 1.956 39.936 7.129 53.437 4.227 11.167 7.445 20.378 7.066 28.895-0.442 8.328-6.688 15.709-14.321 16.719-14.7 1.956-29.968-1.451-45.046-4.921-42.333-9.653-79.935 4.227-105.55 38.422C20.507 160.763 5.176 201.519 2.084 245.871c-3.47 48.643 17.791 85.361 59.873 103.215 15.015 6.372 25.299 15.583 31.356 28.075 5.363 11.041 2.208 16.277-1.199 20.252-11.861 14.258-17.602 17.728-20 18.612C12.179 437.161-7.127 499.62 4.671 550.281c7.382 31.924 18.675 68.831 45.993 100.376 27.192 31.293 60.63 42.649 96.97 32.239l6.814-1.956c11.23-3.281 20.883-6.057 29.463-6.057 29.968 1.893 31.103 18.548 31.608 25.678l0.757 12.113c0.315 2.587-0.442 21.514-2.713 30.599-9.779 38.8 3.028 75.077 36.151 102.017 32.807 26.75 72.743 42.144 125.739 48.453 43.532 5.236 77.159-15.142 95.96-55.267 6.183-12.997 11.104-20.694 17.034-26.435 14.826-14.321 44.605-5.93 53.816 13.186 5.552 11.482 12.744 22.965 21.324 34.195 20.567 26.687 51.166 39.053 85.74 34.069 32.176-4.795 73.879-14.132 109.84-44.037 20.504-17.034 40.441-37.286 46.939-69.336 4.669-23.028-2.082-42.333-7.066-56.403-3.218-9.274-4.416-17.35-3.659-25.425 1.199-13.249 14.069-25.804 27.003-26.245 11.482 0.946 22.712 1.956 32.807 6.183 13.88 5.741 27.76 8.643 41.198 8.643 21.955 0 53.564-7.634 79.746-44.1 24.479-34.132 38.737-74.573 43.721-123.594 4.353-42.649-17.665-78.106-60.314-97.159-9.148-4.101-16.277-9.085-22.145-15.457-7.571-8.076-10.599-18.675-8.58-29.274 1.956-10.41 8.643-18.99 18.233-23.596 17.35-8.139 37.034-19.306 51.923-39.747 17.539-23.848 23.596-52.239 17.981-84.225-4.921-28.643-15.079-70.85-46.056-106.244-29.274-33.438-61.134-40.504-82.711-40.504-9.148 0-18.612 1.262-28.012 3.659-15.773 4.101-31.987 8.012-48.264 4.858-6.877-1.262-15.646-11.167-16.088-18.296-0.82-11.924 0.252-20.504 3.407-27.633 20.504-46.245 4.795-99.178-38.169-128.704-33.501-22.965-71.166-37.412-112.048-42.901C644.468-126.676 639.989-126.928 635.635-126.928zM510.086 40.198c13.943 0 27.949-3.091 41.639-9.274 26.372-11.987 46.561-33.501 60.062-63.973 9.337-20.946 20.252-20.946 23.848-20.946l3.659 0.252c29.842 3.975 56.15 14.069 80.503 30.788 10.599 7.255 20.315 21.892 12.744 39.053-10.599 23.974-10.536 46.876-9.527 62.018 2.776 40.63 36.151 77.979 75.897 85.172 28.958 5.237 57.349-0.315 79.43-5.994 10.347-2.587 19.242-6.751 37.665 14.258 14.574 16.593 23.533 38.422 29.085 70.661 2.713 15.52-1.009 23.217-4.984 28.643-5.047 6.94-13.375 11.798-24.29 16.971-30.851 14.574-52.239 42.207-58.674 75.771-6.435 33.69 3.344 67.443 26.75 92.553 12.492 13.501 27.444 24.164 45.74 32.428 19.179 8.517 18.233 17.413 17.665 23.28-3.659 36.024-13.628 64.92-30.473 88.389-9.842 13.691-17.539 13.691-20.441 13.691-3.785 0-8.265-1.009-13.186-3.091-18.801-7.823-38.359-11.798-57.917-11.798-55.519 2.019-98.042 42.712-102.585 92.742-1.64 18.548 0.82 36.908 7.571 56.024 2.461 7.129 5.047 14.448 4.353 17.791-1.956 9.527-9.274 17.097-22.082 27.76-17.476 14.511-39.558 22.839-74.005 27.949-8.643 0.505-12.744-0.757-17.034-6.309-5.615-7.318-10.158-14.511-13.564-21.514-18.17-37.728-57.349-62.144-99.745-62.144-26.624 0-51.671 10.031-70.535 28.264-15.773 15.331-25.11 32.744-32.239 47.759-6.624 14.195-13.186 14.195-17.476 14.195-42.523-4.858-70.535-15.205-92.175-32.807-14.132-11.545-13.564-19.432-11.419-27.823 3.407-13.754 5.11-42.333 5.11-42.333l0.126-2.145-1.262-21.009c-3.722-52.996-41.892-89.651-97.348-93.31l-7.066-0.189c-18.927 0-35.33 4.732-49.778 8.959l-6.372 1.83c-7.255 0.82-12.555 0.946-21.955-9.842-16.845-19.432-24.416-44.731-30.094-69.147-3.596-15.457-1.073-41.261 20.694-48.958 22.334-7.886 39.368-25.804 51.734-40.567 23.596-28.264 27.507-64.352 10.788-98.925-13.943-28.706-36.971-49.967-68.453-63.342-9.464-4.038-17.161-9.148-15.583-30.977 2.082-30.157 12.492-57.854 30.977-82.459 11.987-15.962 20.252-13.628 30.914-11.167 21.324 4.921 45.551 9.59 71.039 6.183 42.712-5.615 75.33-41.64 77.475-85.613 1.009-22.523-5.236-41.072-11.735-58.169-2.902-7.697-3.848-12.303-3.218-15.962 0.82-5.3 3.091-11.419 13.943-20.441 21.577-17.918 48.832-29.463 85.613-36.403 2.965-0.568 5.93-0.82 8.896-0.82 21.135 0 26.624 14.006 28.391 18.612 7.949 20.757 21.829 38.8 41.072 53.437C467.563 32.816 488.32 40.198 510.086 40.198zM508.193 139.501c-133.373 0-242.266 110.092-242.708 245.358-0.442 135.833 106.244 243.528 242.96 245.231l0 0c136.212 0 245.421-109.524 246.493-244.159 1.136-134.571-108.452-245.105-244.222-246.43L508.193 139.501zM511.537 557.158c-98.358-1.199-173.435-76.781-173.119-172.047 0.315-95.203 76.465-172.678 169.776-172.678l1.767 0c95.645 0.946 172.804 78.484 172.047 172.867C681.25 480.062 604.784 557.158 511.537 557.158z"  horiz-adv-x="1024" />

    
    <glyph glyph-name="gou" unicode="&#58960;" d="M1396.363636 774.981818c0 0-223.418182-74.472727-484.072727-372.363636-242.036364-269.963636-297.890909-381.672727-390.981818-530.618182C512-118.690909 372.363636 151.272727 0 346.763636l195.490909 186.181818c0 0 176.872727-121.018182 297.890909-344.436364 0 0 307.2 474.763636 902.981818 707.490909L1396.363636 774.981818 1396.363636 774.981818zM1396.363636 774.981818"  horiz-adv-x="1397" />

    
    <glyph glyph-name="compile" unicode="&#58903;" d="M582.4 748.8 140.8 307.2 96 64l243.2 44.8 441.6 441.6c25.6 25.6 25.6 70.4 0 96l-102.4 102.4C652.8 774.4 608 774.4 582.4 748.8zM716.8 563.2 659.2 512 544 627.2l51.2 51.2c19.2 19.2 51.2 19.2 76.8 0L710.4 640C736 620.8 736 582.4 716.8 563.2zM211.2 294.4l294.4 294.4 115.2-115.2-294.4-294.4-153.6-32L211.2 294.4zM928 0l-832 0C76.8 0 64 12.8 64 32l0 0C64 51.2 76.8 64 96 64l832 0c19.2 0 32-12.8 32-32l0 0C960 12.8 947.2 0 928 0z"  horiz-adv-x="1024" />

    
    <glyph glyph-name="arrow-down" unicode="&#58881;" d="M472.064 144.44799999999998L72.832 543.6800000000001c-22.08 22.08-22.08 57.792 0 79.872 22.016 22.016 57.792 22.08 79.872 0L512 264.256l359.296 359.296c22.016 22.016 57.792 22.08 79.872 0 22.08-22.08 22.016-57.792 0-79.872l-399.232-399.232C529.856 122.43200000000002 494.144 122.43200000000002 472.064 144.44799999999998z"  horiz-adv-x="1024" />

    
    <glyph glyph-name="arrow-up" unicode="&#58894;" d="M472.064 623.552l-399.232-399.232c-22.08-22.08-22.08-57.792 0-79.872 22.016-22.016 57.792-22.08 79.872 0L512 503.744l359.296-359.296c22.016-22.016 57.792-22.08 79.872 0 22.08 22.08 22.016 57.792 0 79.872L551.936 623.552C529.856 645.568 494.144 645.568 472.064 623.552z"  horiz-adv-x="1024" />

    
    <glyph glyph-name="arrow-right" unicode="&#58911;" d="M751.552 344.06399999999996l-399.232-399.232c-22.08-22.08-57.792-22.08-79.872 0-22.016 22.016-22.08 57.792 0 79.872l359.296 359.296-359.296 359.296c-22.016 22.016-22.08 57.792 0 79.872s57.792 22.016 79.872 0l399.232-399.232c22.016-22.08 22.016-57.792 0-79.872z"  horiz-adv-x="1024" />

    
    <glyph glyph-name="phone" unicode="&#58892;" d="M699.016533 197.46133299999997c-26.077867 25.224533-77.1072 67.515733-125.3376 67.549867-16.110933 0-30.993067-4.642133-43.246933-13.482667l-30.754133-22.254933c-48.162133 10.24-97.553067 52.224-132.676267 113.083733-35.191467 60.859733-46.865067 124.586667-31.709867 171.4176l34.645333 15.5648c44.168533 19.8656 58.504533 76.936533 40.516267 160.836267-14.506667 67.515733-63.761067 195.140267-146.7392 195.140267-7.9872 0-16.042667-1.262933-23.688533-3.754667L181.3504 862.583467C131.072 846.267733 93.218133 804.078933 82.5344 752.401067 51.063467 600.7808 90.5216 414.242133 190.7712 240.605867c100.317867-173.602133 242.244267-301.021867 389.2224-349.4912 14.9504-4.881067 30.446933-7.406933 46.148267-7.406933 36.522667 0 71.611733 13.448533 98.679467 37.888l45.738667 41.301333c16.247467 14.6432 39.901867 48.605867 15.701333 111.547733C771.652267 112.469333 738.269867 159.60746700000004 699.016533 197.46133299999997zM737.211733-0.1365329999999858l-45.738667-41.301333c-17.92-16.1792-41.198933-25.088-65.3312-25.088-10.376533 0-20.650667 1.6384-30.5152 4.9152-135.645867 44.714667-267.502933 163.9424-361.7792 327.133867C139.639467 428.680533 102.1952 602.4874669999999 131.2768 742.2976 138.376533 776.4992 163.396267 804.4544 196.676267 815.240533l58.641067 19.0464C258.116267 835.140267 260.881067 835.5840000000001 263.714133 835.5840000000001c38.7072 0 81.988267-80.554667 98.133333-155.8528 11.844267-55.125333 6.9632-96.324267-12.219733-105.028267l-52.667733-23.620267-1.3312-2.7648c-29.252267-61.508267-18.432-149.981867 28.2624-230.843733 46.728533-80.930133 117.930667-134.485333 185.856-139.8784l3.072-0.238933 46.762667 33.826133c3.754667 2.730667 8.328533 4.061867 14.097067 4.061867 46.250667-0.034133 139.400533-88.951467 166.126933-158.583467C746.939733 38.229333 752.264533 13.380267000000003 737.211733-0.1365329999999858zM906.376533 623.7184c-54.715733 107.8272-148.138667 187.869867-263.133867 225.416533-2.4576 0.8192-5.085867 1.262933-7.714133 1.262933-10.786133 0-20.2752-6.894933-23.620267-17.169067-4.232533-13.0048 2.901333-27.067733 15.940267-31.3344 102.331733-33.416533 185.514667-104.686933 234.154667-200.635733 48.776533-95.982933 57.173333-205.175467 23.7568-307.5072-4.266667-13.038933 2.901333-27.101867 15.9744-31.3344 2.423467-0.8192 5.0176-1.262933 7.68-1.262933 10.786133 0 20.343467 6.894933 23.688533 17.169067C970.615467 393.250133 961.092267 515.8912 906.376533 623.7184zM596.650667 706.286933c-2.491733 0.785067-5.085867 1.2288-7.748267 1.2288-10.786133 0-20.343467-6.894933-23.620267-17.169067-4.266667-13.0048 2.901333-27.101867 15.906133-31.3344 64.1024-20.8896 116.189867-65.604267 146.773333-125.883733 30.583467-60.279467 35.976533-128.7168 14.9504-192.750933-4.232533-13.038933 2.935467-27.101867 15.9744-31.402667 2.525867-0.785067 5.12-1.194667 7.748267-1.194667 10.786133 0 20.309333 6.894933 23.620267 17.134933 25.019733 76.6976 18.670933 158.6176-17.92 230.7072C735.675733 627.746133 673.28 681.233067 596.650667 706.286933zM534.528 516.1984c53.725867-17.578667 83.080533-75.502933 65.536-129.194667-4.232533-13.0048 2.935467-27.067733 15.9744-31.368533 2.491733-0.785067 5.085867-1.2288 7.68-1.2288 10.820267 0 20.343467 6.929067 23.688533 17.169067 26.077867 79.735467-17.681067 165.819733-97.416533 191.8976-2.4576 0.8192-5.085867 1.262933-7.748267 1.262933-10.786133 0-20.2752-6.894933-23.6544-17.134933C514.3552 534.493867 521.489067 520.430933 534.528 516.1984z"  horiz-adv-x="1024" />

    
    <glyph glyph-name="dizhi" unicode="&#58893;" d="M511.425901-59.659138C481.601958-59.659138 168.221882 292.843578 168.221882 482.383741 168.221882 671.919039 321.866277 825.587761 511.425901 825.587761s343.20402-153.645612 343.20402-343.20402C854.629921 292.824117 539.724591-59.659138 511.425901-59.659138L511.425901-59.659138zM511.425901 781.30188C346.33602 781.30188 212.507762 647.455378 212.507762 482.383741c0-165.114207 290.551136-497.761864 298.918139-497.761864 3.853273 0 298.923004 332.647657 298.923004 497.761864C810.348905 647.455378 676.520648 781.30188 511.425901 781.30188L511.425901 781.30188zM511.425901 360.600611c-67.243749 0-121.783131 54.534516-121.783131 121.783131 0 67.243749 54.539382 121.783131 121.783131 121.783131 67.248614 0 121.783131-54.539382 121.783131-121.783131C633.209032 415.135127 578.674516 360.600611 511.425901 360.600611L511.425901 360.600611zM511.425901 559.880992c-42.799549 0-77.49725-34.717163-77.49725-77.49725 0-42.822659 34.697702-77.49725 77.49725-77.49725 42.803198 0 77.49725 34.674592 77.49725 77.49725C588.923151 525.163829 554.229099 559.880992 511.425901 559.880992L511.425901 559.880992zM511.425901 559.880992"  horiz-adv-x="1024" />

    
    <glyph glyph-name="note" unicode="&#59044;" d="M678.79891 610.1823919999999c-7.872295 6.816243-19.685341 5.796006-26.340925-2.307555-6.655584-8.126075-5.656837-20.253276 2.243087-27.100218 56.351426-48.862871 88.678692-120.314203 88.678692-196.068538 0-73.013921-30.40959-142.798287-83.444481-191.407378-7.701402-7.075139-8.374738-19.227923-1.51961-27.14729 3.689019-4.28356 8.822946-6.435573 13.980409-6.435573 4.41045 0 8.845459 1.612731 12.43624 4.869914 60.992119 55.917544 95.954399 136.156006 95.954399 220.120326C780.763187 471.821161 743.603869 553.984463 678.79891 610.1823919999999zM783.507694 698.323848c-8.876158 5.353938-20.338211 2.330068-25.601074-6.822382-5.234211-9.152451-2.267647-20.918425 6.633071-26.327622 96.229668-58.272171 156.020426-165.745928 156.020426-280.46674 0-114.136503-59.289338-221.299175-154.750503-279.698237-8.872065-5.436826-11.790534-17.22736-6.503111-26.356274 3.488451-6.049786 9.720386-9.4093 16.07614-9.4093 3.260254 0 6.551206 0.870834 9.5454 2.691295C891.674229 137.23278000000005 957.972191 257.086495 957.972191 384.678452 957.947632 512.9928629999999 891.099131 633.1494769999999 783.507694 698.323848zM280.84434 239.18886999999995l1.343601-0.280386c5.010107 0.670266 10.272971-0.588401 14.432711-4.205788L513.75497 46.705997000000025 513.75497 722.704119 296.644187 534.7810979999999c-0.670266-0.586354-1.494027-0.791016-2.214435-1.254573-1.099031-0.743944-2.169409-1.457188-3.442402-1.949398-1.294482-0.488117-2.589988-0.639566-3.935636-0.819668-0.785899-0.121773-1.503237-0.479931-2.420119-0.514723L103.411231 530.242735l0-291.054889L280.84434 239.18784700000003zM277.828656 568.7036989999999l242.606457 210.013131c5.556553 4.795213 13.33368 5.849218 19.913539 2.717901 6.579859-3.151783 10.790764-9.969049 10.790764-17.430998l0-758.596328c0-7.461949-4.210905-14.278191-10.813277-17.433044-2.520403-1.201361-5.211698-1.793856-7.877411-1.793856-4.311189 0-8.600889 1.541099-12.037151 4.51278l-242.605434 210.013131L84.718497 200.706417C74.347289 200.76576899999998 66.027809 209.358471 66.027809 219.93843400000003L66.027809 549.475775c0 10.57587 8.319479 19.169595 18.690688 19.227923L277.828656 568.7036989999999z"  horiz-adv-x="1024" />

    
    <glyph glyph-name="svgarticles" unicode="&#58959;" d="M497.0496 823.4496c-230.912 0-418.1504-187.1872-418.1504-418.1504s187.1872-418.1504 418.1504-418.1504 418.1504 187.1872 418.1504 418.1504S728.0128 823.4496 497.0496 823.4496zM652.3392 227.84c-15.872-15.872-41.4208-16.0256-57.4976 0.0512L486.4 336.3328 371.3024 221.184c-15.872-15.872-41.5232-16.0256-57.4976-0.0512-15.872 15.872-16.0256 41.4208 0.0512 57.4976l115.0976 115.0976L318.5152 504.2176c-15.872 15.872-16.0256 41.5232-0.0512 57.4976C334.336 577.536 359.8848 577.7408 375.9616 561.664L486.4 451.2256l103.7824 103.7824c15.872 15.872 41.5232 16.0256 57.4976 0.0512 15.872-15.872 16.0256-41.4208-0.0512-57.4976l-103.7824-103.7824 108.4928-108.4928C668.2112 269.4144 668.3136 243.8144 652.3392 227.84z"  horiz-adv-x="1024" />

    
    <glyph glyph-name="single" unicode="&#59069;" d="M837.139 818.958h-59.605c-16.486 0-35.508-10.144-35.508-26.631 0-16.486 19.022-32.973 35.508-32.973h59.605c35.507 0 59.604-24.096 59.604-59.604v-686.069c0-35.508-24.097-59.604-59.604-59.604h-641.687c-35.508 0-74.82 24.096-74.82 59.604v686.068c0 35.508 24.096 59.604 59.604 59.604h74.82c16.485 0 22.827 16.487 22.827 32.973 0 16.487-6.341 26.631-22.827 26.631h-74.819c-83.7 0.001-119.209-51.994-119.209-120.475v-678.462c0-73.552 44.385-125.545 125.546-125.545h644.221c81.166 0 125.551 43.118 125.551 125.545v678.462c0.001 68.481-41.849 120.476-119.206 120.476v0zM255.056 550.107c0-16.486 13.952-30.433 30.433-30.433h447.66c16.486 0 30.438 13.947 30.438 30.433 0 16.487-13.952 30.438-30.438 30.438h-447.66c-16.481 0-30.433-13.951-30.433-30.438v0zM731.882 415.683h-446.393c-16.481 0-30.433-13.951-30.433-30.438 0-16.482 13.952-30.433 30.433-30.433h447.66c16.486 0 30.438 13.951 30.438 30.433-1.267 17.755-15.219 30.438-31.706 30.438v0zM731.882 236.876h-446.393c-16.481 0-30.433-13.952-30.433-30.439 0-16.485 13.952-30.432 30.433-30.432h447.66c16.486 0 30.438 13.947 30.438 30.432-1.267 17.756-15.219 30.439-31.706 30.439v0zM405.966 744.134h207.979c24.097 0 44.384 24.096 44.384 51.996 0 27.898-20.289 51.995-45.652 51.995h-206.71c-25.363 0-45.652-24.096-45.652-51.995 0-27.9 20.288-51.996 45.652-51.996v0z"  horiz-adv-x="1024" />

    
    <glyph glyph-name="jinggao" unicode="&#58923;" d="M918.795922 539.145313c-21.798121 51.476314-52.909055 97.631021-92.514092 137.236058-39.605037 39.605037-85.862083 70.818309-137.236058 92.514092C635.727364 791.409954 579.236458 802.871877 520.903458 802.871877s-114.823906-11.461923-168.142315-33.976414c-51.476314-21.798121-97.631021-52.909055-137.236058-92.514092s-70.818309-85.862083-92.514092-137.236058C100.496502 485.826904 89.034579 429.335998 89.034579 371.00299800000005s11.461923-114.823906 33.976414-168.142315c21.798121-51.476314 52.909055-97.631021 92.514092-137.236058 39.605037-39.605037 85.862083-70.818309 137.236058-92.514092 53.21607-22.514491 109.809314-33.976414 168.142315-33.976414s114.823906 11.461923 168.142315 33.976414c51.476314 21.798121 97.631021 52.909055 137.236058 92.514092 39.605037 39.605037 70.818309 85.862083 92.514092 137.236058 22.514491 53.21607 33.976414 109.809314 33.976414 168.142315S941.310414 485.826904 918.795922 539.145313zM520.903458-15.83689800000002c-213.273636 0-386.839896 173.56626-386.839896 386.839896s173.56626 386.839896 386.839896 386.839896 386.839896-173.56626 386.839896-386.839896S734.177094-15.83689800000002 520.903458-15.83689800000002zM561.838897 555.212473c0 22.61683-18.318609 40.935439-40.935439 40.935439l0 0c-22.61683 0-40.935439-18.318609-40.935439-40.935439l0-233.332001c0-22.61683 18.318609-40.935439 40.935439-40.935439l0 0c22.61683 0 40.935439 18.318609 40.935439 40.935439L561.838897 555.212473zM522.540875 204.088747m-46.052369 0a45 45 0 1 1 92.104737 0 45 45 0 1 1-92.104737 0Z"  horiz-adv-x="1024" />

    
    <glyph glyph-name="tongzhi" unicode="&#58951;" d="M542.54201494 756.8240128c-14.82838933 7.28812267-30.64679253 5.8298432-43.395824-4.00699413-46.5612512-35.92978133-169.09493653-144.18302507-189.6953184-162.42134294L152.98271574 590.39567573c-38.1237504 0-69.1383872-31.01572907-69.1383872-69.1383872l0-248.66722666c0-38.1237504 31.01572907-69.14057067 69.1383872-69.14057067l134.13333866 0c27.63199573-24.90099627 160.01234347-143.89813653 211.80528107-184.93189653 7.41910613-5.87350507 15.9220992-8.85228053 24.68814933-8.85228054 6.15730133 0 12.44231147 1.46919467 18.5756 4.43596374 22.15471573 10.71770027 40.1801856 41.4823776 40.1801856 68.57952533l0 605.79726933C582.36527147 715.3721984 564.500256 746.03208853 542.54201494 756.8240128zM536.27119467 82.67971307000005c0-9.3576576-7.05235307-21.07410453-11.9020064-25.50242774-58.12925013 46.6704032-209.7160992 183.5041792-211.26934187 184.90679147-0.009824 0.009824-0.0218304 0.01637333-0.0316544 0.02510507-4.21001813 4.55930667-10.21996373 7.4322048-16.91538773 7.4322048L152.98271574 249.5413856c-12.70755307 0-23.0464928 10.33893973-23.0464928 23.0464928L129.93622294 521.2561973300001c0 12.70755307 10.33893973 23.0464928 23.0464928 23.0464928l160.60395093 0c4.64335467 0 8.95925013 1.38623893 12.5765696 3.74830187 3.98625493 0.7367808 7.83279467 2.50723627 11.08663573 5.39323307 1.38187307 1.22469333 135.98565973 120.52855147 187.06910507 160.55919893 4.82563947-4.3104384 11.95112533-16.08691947 11.95112533-25.52534933L536.2701024 82.67971307000005zM797.75294294 383.30906346999996c-5.9357216 91.32257387-73.90617493 150.10128213-76.7965376 152.55830826-9.69493973 8.24320853-24.24062293 7.0676352-32.48601494-2.6305792-8.2443008-9.69712213-7.0676352-24.24171413 2.6305792-32.48601493 0.55886187-0.47590613 55.9723936-48.37427627 60.65613334-120.43140587 3.1119424-47.8667168-17.1009472-96.1744096-60.07434987-143.5815936-8.54774507-9.4307904-7.83388693-24.00485333 1.59690347-32.5536896 4.41304213-3.9993536 9.95035627-5.97174187 15.47129813-5.97174186 6.2784608 0 12.534 2.55089813 17.08239147 7.56864533C777.50730774 262.78597013 801.70426987 322.51539733000004 797.75294294 383.30906346999996zM922.1727872 494.6011168c-35.40693973 99.65310507-101.88200213 159.88354347-104.69377493 162.39842133-9.4875488 8.48334507-24.05615467 7.67234027-32.5416832-1.8163008-8.48443627-9.4875488-7.67124907-24.05724693 1.81520853-32.5416832 0.60143147-0.53812267 60.476032-54.78262933 91.98731414-143.47244053 18.3420128-51.61938453 23.33793067-104.50057493 14.85131093-157.17764907-10.73298133-66.62241813-43.21790507-133.55919573-96.55207787-198.95255573-8.04455147-9.86303467-6.56989867-24.3814304 3.2942272-32.4259808 4.278784-3.48851947 9.4307904-5.1869344 14.55223254-5.1869344 6.6856 0 13.31771627 2.89581973 17.87374826 8.4811616 58.52219947 71.75368533 94.30025813 146.02661333 106.33870507 220.753616C948.82895894 375.06476267000005 943.134464 435.60519467 922.1727872 494.6011168z"  horiz-adv-x="1024" />

    
    <glyph glyph-name="caidan" unicode="&#58924;" d="M905.848832 189.44c22.84544 0 41.744384-18.75968 41.744384-41.603072 0-23.6032-18.898944-42.364928-41.744384-42.364928L301.010944 105.472c-22.833152 0-41.728 18.75968-41.728 42.364928 0 22.843392 18.896896 41.603072 41.728 41.603072L905.848832 189.44zM139.56096 680.511488c29.927424 0 53.557248-24.406016 53.557248-53.54496 0-29.927424-23.631872-53.559296-53.557248-53.559296C110.422016 573.407232 86.016 597.039104 86.016 626.966528 86.016 656.105472 110.422016 680.511488 139.56096 680.511488L139.56096 680.511488zM301.010944 578.56c-22.833152 0-41.728 19.13856-41.728 41.984s18.896896 41.984 41.728 41.984l604.837888 0c22.84544 0 41.744384-19.13856 41.744384-41.984s-18.898944-41.984-41.744384-41.984L301.010944 578.56zM301.010944 326.656c-22.833152 0-41.728 19.140608-41.728 41.984s18.896896 41.984 41.728 41.984l604.837888 0c22.84544 0 41.744384-19.140608 41.744384-41.984s-18.898944-41.984-41.744384-41.984L301.010944 326.656zM139.56096 437.164032c29.927424 0 53.557248-23.63392 53.557248-53.557248 0-29.140992-23.631872-53.557248-53.557248-53.557248C110.422016 330.049536 86.016 354.465792 86.016 383.606784 86.016 413.53216 110.422016 437.164032 139.56096 437.164032L139.56096 437.164032zM139.56096 194.592768c29.927424 0 53.557248-24.420352 53.557248-53.559296 0-29.925376-23.631872-53.54496-53.557248-53.54496C110.422016 87.488512 86.016 111.106048 86.016 141.031424 86.016 170.172416 110.422016 194.592768 139.56096 194.592768L139.56096 194.592768z"  horiz-adv-x="1024" />

    
    <glyph glyph-name="tongxunlu" unicode="&#58938;" d="M116.948 552.151h115.494c13.867 0 25.149 11.7 25.149 26.078 0 14.382-11.282 26.083-25.149 26.083h-115.494c-13.868 0-25.151-11.702-25.151-26.083 0-14.377 11.282-26.078 25.151-26.078zM116.948 364.792h115.494c13.867 0 25.149 11.699 25.149 26.079 0 6.966-2.616 13.515-7.366 18.44-4.75 4.925-11.066 7.64-17.783 7.64h-115.494c-13.868 0-25.151-11.7-25.151-26.080s11.282-26.079 25.151-26.079zM257.591 204.2c0 6.97-2.616 13.521-7.367 18.445-4.749 4.926-11.065 7.641-17.782 7.641h-115.494c-13.868 0-25.151-11.703-25.151-26.086 0-14.377 11.283-26.074 25.151-26.074h115.494c13.867-0.001 25.149 11.695 25.149 26.074zM338.176 177.735l-3.395-8.242h56.054l1.681 3.171c26.273 49.515 88.029 85.745 150.143 88.106h6.066c2.289 0 4.563 0 6.782-0.005 62.145-2.361 123.901-38.588 150.178-88.101l1.681-3.171h56.057l-3.396 8.242c-10.207 24.774-28.017 49.005-51.503 70.069-18.482 16.576-40.38 31.149-63.423 42.224 22.688 14.728 41.968 34.593 55.835 57.548 16.476 27.269 25.185 58.595 25.185 90.589 0 97.817-79.58 177.394-177.395 177.394-97.821 0-177.402-79.579-177.402-177.394 0-32.061 8.743-63.444 25.286-90.752 13.928-22.999 33.288-42.879 56.063-57.595-22.959-11.093-44.764-25.652-63.158-42.179-23.408-21.028-41.16-45.2-51.336-69.904zM548.723 563.969c69.366 0 125.799-56.434 125.799-125.803 0-69.366-56.432-125.798-125.799-125.798-69.368 0-125.803 56.431-125.803 125.798 0 69.369 56.435 125.803 125.803 125.803zM848.424 832.749h-599.407c-52.319 0-94.881-42.561-94.881-94.88v-71.012h50.908v60.41c0 35.955 19.006 54.962 54.966 54.962h578.356c35.955 0 54.96-19.006 54.96-54.962v-672.747c0-35.96-19.003-54.968-54.96-54.968h-578.357c-35.959 0-54.966 19.006-54.966 54.968v60.401h-50.908v-69.968c0-52.32 42.562-94.883 94.881-94.883h599.408c52.319 0 94.883 42.563 94.883 94.883v692.92c0 52.314-42.564 94.877-94.883 94.877z"  horiz-adv-x="1024" />

    
    <glyph glyph-name="cuowu" unicode="&#58950;" d="M682.5 539c-10.3 10.6-28.9 9.1-39.4-2.3L512.6 402.5l-136.4 135c-10.6 9.7-27.9 10.6-37.9 0.6-9.4-9.7-12.5-24.1-1.5-36.1L474 363.4 340.4 226.8c-10-10.2-11.5-25.2 0.2-36 12.9-11.9 30.5-6.4 39.1 2.2l132.9 134.3 142.4-135c10.3-9.3 26.7-10.8 36.3-0.2 10.9 12 8.6 23.4-2.7 35L551.3 363.2l134 141.6C695.3 515.5 690.5 531.2 682.5 539zM471.3 366.9M931.84 384c0-231.936-187.904-419.84-419.84-419.84S92.16 152.064 92.16 384s187.904 419.84 419.84 419.84S931.84 615.936 931.84 384zM513.024 740.352c-190.464 0-358.4-167.424-358.4-357.376 0-197.632 160.256-358.4 358.4-358.4s358.4 160.256 358.4 358.4C870.912 571.904 706.048 740.352 513.024 740.352z"  horiz-adv-x="1026" />

    
    <glyph glyph-name="saomiao" unicode="&#58927;" d="M956.94392844 349.77616406000004L67.05607156 349.77616406000004c-18.89630812 0-34.22959219 15.332325-34.22959219 34.22383594 0 18.89534906 15.33328406 34.22863313 34.22959219 34.22863313l889.88785594 0c18.9270075 0 34.22959219-15.332325 34.22959219-34.22863313C991.17256062 365.10944813000003 975.86997594 349.77616406000004 956.94392844 349.77616406000004L956.94392844 349.77616406000004zM854.26282625-60.94728563000001L648.90637719-60.94728563000001c-18.9270075 0-34.22959219 15.30066656-34.22959219 34.22863313 0 18.9270075 15.30162562 34.22959219 34.22959219 34.22959219l205.35740812 0c18.89439 0 34.22863313 15.33328406 34.22863313 34.22383594L888.49241844 212.86642874999995c0 18.9270075 15.29682844 34.22959219 34.22959218 34.22959219 18.9270075 0 34.22383594-15.30258469 34.22383594-34.22959219l0-171.13357125C956.94392844-14.873564060000035 910.87500313-60.94728563000001 854.26282625-60.94728563000001L854.26282625-60.94728563000001zM340.86307063-60.94728563000001L169.72949938-60.94728563000001c-56.60546156 0-102.67438687 46.07180344-102.67438688 102.68014313L67.0551125 212.86642874999995c0 18.9270075 15.332325 34.22959219 34.22287687 34.22959219 18.89534906 0 34.22863313-15.30258469 34.22863313-34.22959219l0-171.13357125c0-18.88863375 15.3649425-34.22383594 34.22287687-34.22383594L340.86307063 7.509020630000009c18.89534906 0 34.23055125-15.30258469 34.23055124-34.22959219C375.09266281-45.646619999999984 359.75841969-60.94728563000001 340.86307063-60.94728563000001L340.86307063-60.94728563000001zM101.27798938 520.91069437c-18.89055187 0-34.22287687 15.331365-34.22287688 34.22191782L67.0551125 726.26618344c0 56.61217688 46.06892531 102.68110219 102.67438687 102.68110218L340.86307063 828.94728563c18.89534906 0 34.23055125-15.33328406 34.23055124-34.22863313 0-18.88863375-15.33328406-34.22287687-34.23055125-34.22287688L169.72949938 760.49577562c-18.85793437 0-34.22287687-15.36877969-34.22287688-34.22863312l0-171.13357125C135.50758156 536.24301937 120.17333844 520.91069437 101.27798938 520.91069437L101.27798938 520.91069437zM922.72009156 520.91069437c-18.93084469 0-34.22959219 15.331365-34.22959219 34.22191782L888.49049937 726.26618344c0 18.85985344-15.332325 34.22863313-34.22863312 34.22863312L648.90637719 760.49481656c-18.9270075 0-34.22959219 15.33424312-34.22959219 34.22287688 0 18.89534906 15.30162562 34.22863313 34.22959219 34.22863312l205.35740812 0c56.61217688 0 102.68014313-46.06892531 102.68014313-102.68110219l0-171.13357125C956.94392844 536.24301937 941.64614 520.91069437 922.72009156 520.91069437L922.72009156 520.91069437z"  horiz-adv-x="1024" />

    
    <glyph glyph-name="yonghu" unicode="&#58934;" d="M515.32010844 857.35978219c-262.83696469 0-476.67989156-213.86286656-476.67989156-476.67989156s213.86286656-476.67989156 476.67989156-476.67989157 476.67989156 213.86286656 476.67989156 476.67989156S778.15707406 857.35978219 515.32010844 857.35978219zM515.32010844-56.497683749999965c-241.06183688 0-437.15763469 196.11573844-437.15763469 437.17757531 0 241.06183688 196.09579781 437.17757531 437.15763469 437.17757532s437.15763469-196.11573844 437.15763469-437.17757532S756.38194531-56.497683749999965 515.32010844-56.497683749999965zM608.16351313 372.58401000000003L608.16351313 372.58401000000003c44.76663281 29.9707125 74.27871094 80.99869125 74.27871093 138.92611594 0 92.28506719-74.81710781 167.102175-167.102175 167.102175-92.28506719 0-167.102175-74.81710781-167.102175-167.102175 0-57.94736531 29.51207906-108.95540344 74.29865156-138.92611594-93.99995812-37.04962313-160.54171969-128.59688813-160.54171968-235.73769844 0-0.21934687 0-0.41875219 0.01994062-0.61815843 0-0.03988125-0.01994063-0.09970313-0.01994062-0.13958438 0-14.63639531 11.86465313-26.48110875 26.50104937-26.48110875 14.61645469 0 20.51887125 11.8447125 20.51887125 26.48110875 0 0.31904906-0.0797625 0.61815844-0.09970312 0.95714813 0.09970313 110.63041313 95.77467094 206.24556 206.44496625 206.24555999 110.73011625 0 206.44496625-95.71484906 206.44496625-206.44496625 0-0.13958437-1.37590125-27.23885062 20.59863281-27.23885062 14.53669312 0 26.32158375 11.78489063 26.32158375 26.30164312 0 0.05982188-0.01994063 0.11964375-0.01994063 0.19940625 0 0.2392875 0.01994063 0.47857406 0.01994063 0.73780219C768.68529219 243.98712187 702.12359 335.53438687000005 608.16351313 372.58401000000003zM515.32010844 385.18646531c-69.75219656 0-126.30372 56.55152344-126.30372 126.30372 0 69.77213719 56.55152344 126.30372 126.30372 126.30372 69.77213719 0 126.30372-56.55152344 126.30372-126.30372S585.072305 385.18646531 515.32010844 385.18646531z"  horiz-adv-x="1024" />

    
    <glyph glyph-name="gouxuan" unicode="&#58929;" d="M64.132646 399.435551l57.085136 54.933123L383.858528 231.287923c0 0 195.159842 180.534749 552.393989 479.748459l23.016203-57.541531c0 0-297.774941-287.705608-576.84896-594.112136L64.132646 399.435551z"  horiz-adv-x="1024" />

    
    <glyph glyph-name="loading" unicode="&#59033;" d="M546.462897 629.707034c-73.410207 0-133.15531 59.727448-133.155311 133.137656C413.307586 836.237241 473.05269 896 546.462897 896c73.410207 0 133.12-59.727448 133.12-133.15531 0-73.410207-59.709793-133.137655-133.12-133.137656z m-283.453794-105.736827c-67.054345 0-121.626483 54.554483-121.626482 121.644138s54.572138 121.644138 121.626482 121.644138a121.767724 121.767724 0 0 0 121.608828-121.644138c0-67.054345-54.554483-121.644138-121.608828-121.644138zM142.547862 248.814345A107.343448 107.343448 0 0 0 35.310345 356.104828a107.343448 107.343448 0 0 0 107.237517 107.237517 107.343448 107.343448 0 0 0 107.219862-107.237517 107.343448 107.343448 0 0 0-107.219862-107.272828z m120.461241-272.595862a91.047724 91.047724 0 0 0-90.941793 90.959448 91.065379 91.065379 0 0 0 90.924138 90.941793 91.065379 91.065379 0 0 0 90.941793-90.941793c0-50.14069-40.783448-90.959448-90.924138-90.959448zM546.462897-128a79.518897 79.518897 0 0 0-79.448276 79.448276c0 43.820138 35.645793 79.448276 79.448276 79.448276a79.518897 79.518897 0 0 0 79.43062-79.448276c0-43.820138-35.628138-79.448276-79.448276-79.448276z m287.744 134.285241a64.194207 64.194207 0 0 0-64.123587 64.123587 64.194207 64.194207 0 0 0 64.123587 64.123586 64.194207 64.194207 0 0 0 64.123586-64.123586 64.194207 64.194207 0 0 0-64.123586-64.123587z m117.848275 296.695173a52.683034 52.683034 0 0 0-52.612413 52.612414 52.683034 52.683034 0 0 0 52.612413 52.630069 52.70069 52.70069 0 0 0 52.630069-52.612414 52.718345 52.718345 0 0 0-52.630069-52.630069z m-158.667034 338.696827a40.818759 40.818759 0 1 1 81.655172-0.017655 40.818759 40.818759 0 0 1-81.655172 0z"  horiz-adv-x="1024" />

    
    <glyph glyph-name="cart" unicode="&#58961;" d="M919.84384 685.58336H241.17248L229.40672 782.6432c-1.92 15.83616-16.5376 28.79488-32.49664 28.79488H190.464c-2.72384 0-5.30944-0.384-7.7312-1.09056H99.77344c-19.14368 0-34.81088-14.3616-34.81088-31.90784s15.6672-31.90784 34.816-31.90784H169.3184L235.7248 198.65599999999995c1.92-15.84128 16.54272-28.8 32.49664-28.8h6.4512c2.69312 0 5.25824 0.37888 7.6544 1.07008h548.82304c19.14368 0 34.80576 14.35648 34.80576 31.90784 0 17.55136-15.66208 31.90784-34.80576 31.90784H295.81824l-8.13056 67.11296h545.1776c15.95392 0 31.89248 12.72832 35.42016 28.288l74.15296 327.14752c3.52768 15.55456-6.64064 28.288-22.59456 28.288zM294.58944 30.279679999999985c0-42.8032 34.70336-77.51168 77.51168-77.51168s77.50656 34.70336 77.50656 77.5168c0 42.8032-34.69824 77.50656-77.50656 77.50656s-77.5168-34.70336-77.5168-77.51168z m384.23552 0c0-42.8032 34.70336-77.51168 77.5168-77.51168s77.50656 34.70336 77.50656 77.5168c0 42.8032-34.70336 77.50656-77.51168 77.50656-42.8032 0-77.51168-34.70336-77.51168-77.51168z"  horiz-adv-x="1024" />

    
    <glyph glyph-name="icon-shanchu" unicode="&#58925;" d="M576.017524 160.318568V511.811967c0 40.962947 63.99143 40.962947 63.99143 0v-351.493399c0.001023-40.966017-63.99143-40.966017-63.99143 0m-192.035688 0V511.811967c0 40.962947 64.022129 40.962947 64.022129 0v-351.493399c0-40.966017-64.022129-40.966017-64.022129 0m544.082696 511.269359H768.053212v63.931055c0 52.930513-43.031049 95.844905-95.025237 95.844905H351.984075c-53.014424 0-96.015797-42.915415-96.015797-95.844905v-63.931055H95.956957c-41.022299 0-41.022299-63.874773 0-63.874773h832.107575c40.992623 0 40.992623 63.874773 0 63.874773m-608.074125 63.933102c0 16.975627 14.992459 31.969109 31.993668 31.969109h321.042877c17.001209 0 31.004131-12.987802 31.004131-31.969109v-63.932078H319.990407v63.932078m416.040484-798.88594H287.961946c-52.983725 0-95.985098 42.912345-95.985098 95.840812V511.811967c0 18.98233 14.993482 31.968086 31.993668 31.968086 17.005302 0 31.996738-12.985756 31.996738-31.968086v-479.335042c0-16.942881 15.023158-31.93227 31.993668-31.93227h448.067922c17.000186 0 32.023344 14.989389 32.023345 31.93227V510.82243c0 41.951461 63.99143 41.951461 63.991429 0v-478.346529c0.002047-52.928466-42.999326-95.840812-96.012727-95.840812m0 0z"  horiz-adv-x="1024" />

    
    <glyph glyph-name="mima" unicode="&#58930;" d="M503.53712422 305.31826552999996h16.95131894c14.01615879 0 25.40396778-13.86275273 25.40396866-30.94191035v-144.40580948c0-17.07915762-11.38780898-30.95213731-25.42953604-30.95213731h-16.941092c-14.03149922 0-25.3988543 13.87298057-25.39885516 30.95213731v144.40580948c0.01534042 17.07915762 11.3826955 30.94191036 25.4141956 30.94191034zM821.44467178 462.68173447h-51.66700752V524.56555518c0 139.16445117-104.13172442 268.0047044-257.77255078 268.00470439-151.24769912 0-257.7674373-133.40151386-257.76743731-268.00470439v-61.88893419H202.57578213V524.56555518c0 168.72059707 140.7036208 309.43444482 309.42421787 309.43444482 166.60360019 0 309.44467178-134.97136435 309.44467178-309.43444482v-61.8838207zM787.99713682 470.34690088H236.0182045c-64.03661279 0-115.96441026-51.91245615-115.96441026-115.96440937v-304.42319474c0-64.03149932 51.91756963-115.95929677 115.96441026-115.95929677h551.97893232c64.02638584 0 115.95418242 51.91245615 115.95418242 115.95929677v304.42319474c-0.00511348 64.04683974-51.92268398 115.96441026-115.95418242 115.96440937z m72.66823417-368.62343965c0-70.5103295-41.83882207-127.68971133-112.35426416-127.68971221H275.70423359c-70.52566992 0-112.35937852 57.17426836-112.35937763 127.68971221v200.91020625c0 70.5103295 41.82859511 127.68971133 112.35937763 127.68971133h472.60687324c70.51544297 0 112.35426503-57.16915489 112.35426416-127.68971133v-200.91020625z"  horiz-adv-x="1024" />

    
    <glyph glyph-name="gouxuan2" unicode="&#58972;" d="M512-72.704c-61.639 0-121.453 12.080-177.78 35.904-54.388 23.005-103.226 55.93-145.158 97.861-41.931 41.932-74.858 90.77-97.861 145.158-23.824 56.326-35.904 116.141-35.904 177.78 0 61.639 12.080 121.453 35.904 177.78 23.005 54.388 55.93 103.226 97.861 145.158 41.932 41.931 90.77 74.858 145.158 97.861 56.326 23.824 116.141 35.904 177.78 35.904 61.639 0 121.453-12.080 177.78-35.904 54.388-23.005 103.226-55.93 145.158-97.861 41.932-41.932 74.858-90.77 97.861-145.158 23.824-56.326 35.904-116.141 35.904-177.78 0-61.639-12.080-121.453-35.904-177.78-23.005-54.388-55.93-103.226-97.861-145.158s-90.77-74.858-145.158-97.861c-56.326-23.824-116.141-35.904-177.78-35.904zM512 772.437c-214.186 0-388.437-174.252-388.437-388.437s174.252-388.437 388.437-388.437 388.437 174.252 388.437 388.437-174.252 388.437-388.437 388.437z"  horiz-adv-x="1024" />

    
    <glyph glyph-name="star3" unicode="&#59715;" d="M220.74666687-83.25333375000002a69.12 69.12 0 0 1 73.44-4.05333281L512 33.76000031000001l217.86666656-121.06666687a69.33333375 69.33333375 0 0 1 73.49333344 4.05333281 69.86666625 69.86666625 0 0 1 28.32 68.26666687l-42.40000031 261.65333344 183.09333375 188.69333344a69.81333375 69.81333375 0 0 1-39.14666719 117.54666656l-249.81333281 38.4L574.77333313 823.84000031a69.28000031 69.28000031 0 0 1-125.54666626 0L340.64 591.25333313l-249.81333375-38.34666657A69.86666625 69.86666625 0 0 1 51.73333344 435.36l183.04000031-188.69333344-42.45333375-261.70666687c-4.26666656-26.34666656 6.77333344-52.8 28.48000031-68.26666594"  horiz-adv-x="1024" />

    
    <glyph glyph-name="star2" unicode="&#59716;" d="M90.34666625 483.57333375l249.0666675 38.18666625 43.7333325 6.72 19.25333344 41.17333312L512 804.10666688l109.54666687-234.45333375 19.20000001-41.17333313 43.83999937-6.72 249.0666675-38.18666625L752 296.53333312999996l-30.50666625-31.35999938 7.09333312-43.84000031 42.45333282-261.17333344-219.46666594 121.81333313L512 103.99999968999998l-39.62666625-22.02666656-219.46666688-121.86666657 42.45333282 261.22666688 7.09333406 43.84000031-30.50666719 31.35999938-181.54666687 186.98666718zM220.80000031-83.25333375000002a69.06666656 69.06666656 0 0 1 73.44-4.05333281L512 33.76000031000001l217.81333313-121.06666687a69.33333375 69.33333375 0 0 1 73.44 4.05333281 69.86666625 69.86666625 0 0 1 28.37333343 68.26666687l-42.40000031 261.65333344 183.09333375 188.69333344a69.76000031 69.76000031 0 0 1-39.14666625 117.54666656l-249.81333375 38.4L574.77333313 823.89333375a69.28000031 69.28000031 0 0 1-125.54666626 0L340.64 591.25333313l-249.81333375-38.34666657A69.86666625 69.86666625 0 0 1 51.73333344 435.36l183.04000031-188.69333344-42.45333375-261.70666687c-4.26666656-26.34666656 6.77333344-52.8 28.48000031-68.26666594z"  horiz-adv-x="1024" />

    
    <glyph glyph-name="star1" unicode="&#59724;" d="M511.97333469 804.10999406l109.54058156-234.44030906 19.19893312-41.17104562 43.83756469-6.71962688 249.05283-38.18454562L751.9600025 296.5648575l-30.50497219-31.3582575 7.09293938-43.83756469 42.450975-261.15882469-219.45447469 121.80656626L511.97333469 104.04222000000004V804.10999406zM260.62729813-95.94666937c11.57269031 0 23.09205 2.87983969 33.59813343 8.69284968L511.97333469 33.80612155999995l217.80123375-121.05994125a69.32948156 69.32948156 0 0 1 73.43592 4.05310875 69.862785 69.862785 0 0 1 28.37175656 68.26287375l-42.39764437 261.63879844 183.08316187 188.68285031a69.75612469 69.75612469 0 0 1-39.14449125 117.54013688l-249.79945594 38.39786718L574.74318125 823.89556125a69.27615094 69.27615094 0 0 1-125.53969219 0L340.62285406 591.268485l-249.799455-38.34453656A69.862785 69.862785 0 0 1 51.7322375 435.38381156l183.02983125-188.68285031-42.450975-261.69212812c-4.26642937-26.34520313 6.7729575-52.79706656 28.47841781-68.26287469 11.89267219-8.42619844 25.91856-12.69262781 39.89111719-12.69262781z"  horiz-adv-x="1024" />

    
    <glyph glyph-name="tupian" unicode="&#58887;" d="M871.125 462.25a119.85 119.85 0 1 1 0 239.66 119.85 119.85 0 0 1 0-239.66z m209.622 399.318H102.272c-38.955 0-69.93-31.701-69.93-70.656v-817.067c0-38.954 30.975-70.656 69.93-70.656h978.475c38.954 0 69.93 31.702 69.93 70.656V790.912c0 38.955-30.976 70.656-69.93 70.656z m-257.28-493.44a42.837 42.837 0 0 1-31.958 15.488c-12.714 0-21.674-5.973-31.957-14.208l-46.677-39.467c-9.728-6.997-17.494-11.733-28.672-11.733a41.301 41.301 0 0 0-27.478 10.24 338.09 338.09 0 0 0-10.752 10.24L511.701 483.925a55.04 55.04 0 0 1-41.685 18.774c-16.725 0-32.213-8.278-41.941-19.499L112.213 102.357V752.47c2.475 16.982 15.702 29.227 32.683 29.227h892.928c17.237 0 31.19-12.757 32.213-29.952l0.726-649.899L823.38 368.128z"  horiz-adv-x="1152" />

    
    <glyph glyph-name="loading2" unicode="&#58993;" d="M765.576 20.456000000000017c10.216-17.248 4.456-40.264-13.376-49.952a35.984 35.984 0 0 0-49.64 13.376c-10.72 17.232-4.472 39.728 12.784 49.936a36.984 36.984 0 0 0 50.232-13.36z m-215.72-77.968c0-19.904-16.472-36.576-37.16-36.576a36.672 36.672 0 0 0-36.576 36.576v25.64a36.72 36.72 0 0 0 36.576 36.656c20.408 0 37.16-16.232 37.16-36.656v-25.64z m-225.92 41.312a36.512 36.512 0 0 0-49.768-13.856l-0.48 0.264a36.328 36.328 0 0 0-13.576 50.248l27.232 47.64a37.648 37.648 0 0 0 50.736 13.584c17.248-10.208 23.568-32.992 13.072-50.24l-27.216-47.64zM148.672 131.832c-17.744-9.92-40.528-3.952-50.24 13.576-10.416 17.248-4.448 40.032 13.072 50.24l73.232 42.384c17.536 9.696 40.24 4.256 50.24-13.576 9.92-17.248 3.872-40.04-13.584-50.248l-72.72-42.376zM70.768 348.12800000000004a36.48 36.48 0 0 0-36.576 36.384v0.192a36.56 36.56 0 0 0 36.256 36.864H184.8a36.48 36.48 0 0 0 36.576-36.384v-0.192a36.552 36.552 0 0 0-36.224-36.864H70.768z m40.816 226.208c-17.824 9.92-23.568 32.416-13.072 49.952 9.696 17.744 32.416 23.792 50.24 13.584l123.888-71.936c17.536-9.984 23.28-32.4 13.584-49.728a36.96 36.96 0 0 0-50.16-13.584l-124.48 71.712z m148.528 175.2l86.304-149.824c10.496-17.536 32.992-23.776 50.448-13.36 17.536 9.92 23.28 32.688 13.072 50.224L323.344 786.112c-9.92 17.328-32.4 23.568-49.664 13.36a36.512 36.512 0 0 1-13.648-49.8l0.08-0.136z m216.016 77.392c0 19.904 16.736 36.864 36.576 36.864 20.408 0 37.16-16.528 37.16-36.864V654.3199999999999c0-20.4-16.472-36.864-37.16-37.152a36.752 36.752 0 0 0-36.576 36.928V826.928z m225.92-40.816a36.928 36.928 0 0 0 50.24 13.584 36.296 36.296 0 0 0 14.104-49.344l-0.512-0.896L679.36 599.6320000000001c-9.76-17.456-32.768-23.712-50.232-13.584-17.544 10.208-23.28 32.992-13.36 50.512l86.28 149.552z m175.784-148.24L727.696 551.344c-17.536-9.92-23.568-32.4-13.584-50.224a37.648 37.648 0 0 1 50.24-13.36l150.12 86.512a36.288 36.288 0 0 1 13.296 49.568l-0.232 0.384c-9.976 17.808-32.528 24.128-49.704 13.648z m77.096-216.304a36.208 36.208 0 0 0 36.568-36.864 36.344 36.344 0 0 0-36.128-36.576H782.112a36.96 36.96 0 0 0-36.656 36.864c0 20.112 16.752 36.576 36.656 36.576h172.816z"  horiz-adv-x="1024" />

    
    <glyph glyph-name="shijian" unicode="&#58895;" d="M512.384-57.86c-246.953 0-447.139 200.2-447.139 447.14 0 246.943 200.186 447.138 447.139 447.138 246.944 0 447.138-200.195 447.138-447.139 0-246.94-200.194-447.139-447.138-447.139z m0 843.607c-218.962 0-396.468-177.502-396.468-396.468 0-218.962 177.506-396.467 396.468-396.467S908.85 170.317 908.85 389.279 731.346 785.747 512.384 785.747z m229.041-508.58c-6.158-13.193-21.88-18.86-35.073-12.678l-210.116 70.244c-10.05 4.693-15.645 14.9-15.08 25.334-0.127 1.056-0.612 1.933-0.612 3.02V653.342c0 14.586 11.8 26.39 26.386 26.39 14.585 0 26.385-11.804 26.385-26.39v-275.727l195.409-65.35c13.217-6.184 18.885-21.88 12.701-35.098z"  horiz-adv-x="1024" />

    
    <glyph glyph-name="qianbao" unicode="&#58994;" d="M941.78670592 666.2093437155555c0 72.49414371555555-62.13783665777777 134.63198037333333-134.63198037333333 134.63197923555558H232.37973333333332c-72.49414371555555 0-134.63198037333333-62.13783665777777-134.63198037333333-134.63197923555558v-572.1859163022222c0-72.49414371555555 62.13783665777777-134.63198037333333 134.63198037333333-134.63198037333333h572.1859163022222c72.49414371555555 0 134.63198037333333 62.13783665777777 134.63198037333333 134.63198037333333v142.39920924444445H636.2756744533333c0 2.5890770488888886-116.50844444444445-7.767230008888888-116.50844444444445 137.22105742222223 0 155.34459221333333 126.86475036444445 144.98828629333332 126.86475036444445 144.98828629333332h295.15472554666667v147.57736334222224zM574.1378366577777 376.232769991111c0-100.97398556444443 90.61767850666665-90.61767850666665 90.61767964444445-90.61767850666665h266.6748836977778v194.18074111999996h-258.90765482666666c0-2.5890770488888886-98.38490851555554 5.17815296-98.38490851555554-103.56306261333333z m100.97398556444443 44.01430186666666c18.123535928888888 0 33.657994808888894-15.534458879999999 33.657994808888894-33.657994808888894 0-12.945382968888888-7.767230008888888-23.301688888888886-18.123535928888888-31.068918897777777-10.35630592-5.17815296-23.301688888888886-5.17815296-33.657994808888894 0s-18.123535928888888 18.123535928888888-18.123535928888888 31.068918897777777c2.5890770488888886 18.123535928888888 18.123535928888888 33.657994808888894 36.247071857777776 33.657994808888894z"  horiz-adv-x="1024" />

    
    <glyph glyph-name="message" unicode="&#59860;" d="M455.488 67.00800000000004c18.624-1.984 37.504-3.008 56.512-3.008 249.152 0 448 173.952 448 384s-198.848 384-448 384-448-173.952-448-384c0-108.416 52.928-210.176 145.28-282.88 11.072-8.704 22.72-16.96 34.752-24.704l24.32-15.616 4.416-28.544 17.408-113.472c105.536 72.128 135.872 87.424 165.312 84.224z m-154.496-154.624c-8.256-5.568-16.832-11.52-25.728-17.6l-38.912 16.64-4.736 30.976c21.76 15.168 41.152 28.544 58.56 40.384l10.816-70.4zM512 0a590.08 590.08 0 0 0-63.36 3.392c-10.048 1.088-78.72-42.688-206.208-131.392l-32.96 214.528a507.648 507.648 0 0 0-39.808 28.352C65.472 196.86400000000003 0 315.712 0 448c0 247.424 229.248 448 512 448s512-200.576 512-448-229.248-448-512-448zM288.512 373.24800000000005a58.944 58.944 0 1 1-59.008 58.88c0-32.576 26.432-58.88 59.008-58.88z m291.328 59.968a59.008 59.008 0 0 1-59.136 58.88 58.944 58.944 0 1 1 0-118.016c32.64 0 59.136 26.56 59.136 59.136z m232.128 0a58.944 58.944 0 1 1-117.952-0.128 58.944 58.944 0 0 1 117.952 0.128z"  horiz-adv-x="1024" />

    
    <glyph glyph-name="icon-" unicode="&#59109;" d="M596.375 693.375h-168.75c-16.875 0-28.125 11.25-28.125 28.125s11.25 28.125 28.125 28.125h168.75c16.875 0 28.125-11.25 28.125-28.125s-11.25-28.125-28.125-28.125zM905.75 749.625h-84.375c-14.0625 0-28.125-14.0625-28.125-28.125s14.0625-28.125 28.125-28.125h84.375v-140.625H118.25V693.375h84.375c14.0625 0 28.125 14.0625 28.125 28.125s-14.0625 28.125-28.125 28.125H118.25C87.3125 749.625 62 724.3125 62 693.375v-703.125c0-30.9375 25.3125-56.25 56.25-56.25h787.5c30.9375 0 56.25 25.3125 56.25 56.25V693.375c0 30.9375-25.3125 56.25-56.25 56.25z m0-759.375H118.25V496.5h787.5v-506.25zM315.125 637.125c-16.875 0-28.125 11.25-28.125 28.125V805.875c0 16.875 11.25 28.125 28.125 28.125s28.125-11.25 28.125-28.125v-140.625c0-16.875-11.25-28.125-28.125-28.125zM708.875 637.125c-16.875 0-28.125 11.25-28.125 28.125V805.875c0 16.875 11.25 28.125 28.125 28.125s28.125-11.25 28.125-28.125v-140.625c0-16.875-11.25-28.125-28.125-28.125zM315.125 271.5H258.875c-16.875 0-28.125 11.25-28.125 28.125s11.25 28.125 28.125 28.125h56.25c16.875 0 28.125-11.25 28.125-28.125s-11.25-28.125-28.125-28.125zM540.125 271.5h-56.25c-16.875 0-28.125 11.25-28.125 28.125s11.25 28.125 28.125 28.125h56.25c16.875 0 28.125-11.25 28.125-28.125s-11.25-28.125-28.125-28.125zM765.125 271.5h-56.25c-16.875 0-28.125 11.25-28.125 28.125s11.25 28.125 28.125 28.125h56.25c16.875 0 28.125-11.25 28.125-28.125s-11.25-28.125-28.125-28.125zM315.125 102.75H258.875c-16.875 0-28.125 11.25-28.125 28.125s11.25 28.125 28.125 28.125h56.25c16.875 0 28.125-11.25 28.125-28.125s-11.25-28.125-28.125-28.125zM540.125 102.75h-56.25c-16.875 0-28.125 11.25-28.125 28.125s11.25 28.125 28.125 28.125h56.25c16.875 0 28.125-11.25 28.125-28.125s-11.25-28.125-28.125-28.125zM765.125 102.75h-56.25c-16.875 0-28.125 11.25-28.125 28.125s11.25 28.125 28.125 28.125h56.25c16.875 0 28.125-11.25 28.125-28.125s-11.25-28.125-28.125-28.125z"  horiz-adv-x="1024" />

    
    <glyph glyph-name="mendian" unicode="&#59907;" d="M1132.53942161 503.98166221V564.0003375a29.69996308 29.69996308 0 0 1-3.2062456 13.4437333L1008.22707718 817.46252109a30.37496221 30.37496221 0 0 1-26.99996661 16.53747891H254.64676936a30.26246221 30.26246221 0 0 1-27.0562166-16.53747891L106.54070393 577.4440708A29.53121308 29.53121308 0 0 1 103.33445833 564.0003375v-60.01867529c0-48.93743847 23.79372012-92.47488398 60.52492441-119.92484971v-390.03701221H133.59692054a30.14996221 30.14996221 0 0 1-30.26246221-30.03746308c0-16.53747891 13.5562333-29.98121221 30.26246221-29.98121221h968.62378886a30.14996221 30.14996221 0 0 1 30.31871221 29.98121221 30.14996221 30.14996221 0 0 1-30.26246221 30.03746308h-30.26246221V384.0005625a149.39981367 149.39981367 0 0 1 60.52492442 119.92484971z m-484.31189443 0V774.43132471h127.29359091l49.6686876-197.26850391 4.61249472-73.12490859c0-49.6686876-40.72494903-89.9998875-90.78738661-89.9998875a90.56238662 90.56238662 0 0 0-90.78738662 89.9998875z m-482.62439708 56.19367969L273.20924564 775.50007295h136.12483036L345.54665598 560.6253419v-56.64367969c0-49.6124376-40.72494903-89.9998875-90.78738662-89.9998875a90.56238662 90.56238662 0 0 0-90.84363661 89.9998875l1.68749735 56.19367969z m240.4122003 0.28125l54.11243232 215.26848105H587.64635276V503.98166221c0-49.6124376-40.72494903-89.9998875-90.78738662-89.9998875a90.56238662 90.56238662 0 0 0-90.84363575 89.9998875V560.4565918999999z m484.31189443 1.34999823l-60.35617442 212.11848458h132.18733477l109.85611202-212.06223458v-57.88117792c0-49.6124376-40.78119903-89.9998875-90.84363575-89.9998875a90.56238662 90.56238662 0 0 0-90.78738662 89.9998875V561.80659013zM224.49680715 357.0005959a151.59356016 151.59356016 0 0 1 151.31231016 57.09367881 151.59356016 151.59356016 0 0 1 121.10609883-60.07492442c49.49993847 0 93.4873831 23.62497011 121.04984883 60.07492442 21.88122276-28.79996396 53.88743232-49.6124376 90.84363662-57.03742881v-362.98079561h-484.31189443V357.0005959v-0.05625001z m786.99276563-362.98079561H769.333626V357.0005959a151.76231016 151.76231016 0 0 1 90.84363662 57.03742881 151.59356016 151.59356016 0 0 1 151.31231016-57.09367882v-362.9807956zM293.79672015 182.73831386999996a29.81246309 29.81246309 0 0 0 0 42.46869727l60.5249244 59.96242529a30.48746221 30.48746221 0 0 0 42.8061964 0 29.81246309 29.81246309 0 0 0 0-42.41244727l-60.52492442-60.0186753a30.26246221 30.26246221 0 0 0-42.80619638 0z m75.65615595-93.93738223a29.81246309 29.81246309 0 0 0 0 42.41244727l181.57477236 179.999775a30.48746221 30.48746221 0 0 0 42.80619639 0 29.81246309 29.81246309 0 0 0 0-42.41244727l-181.57477236-179.999775a30.26246221 30.26246221 0 0 0-42.80619638 0z"  horiz-adv-x="1215" />

    
    <glyph glyph-name="qianbao1" unicode="&#58953;" d="M784 768H240C152 768 80 696 80 608v-448c0-88 72-160 160-160h544c88 0 160 72 160 160V608c0 88-72 160-160 160z m96-480H592c-52.8 0-96 43.2-96 96s43.2 96 96 96h288v-192zM592 544c-88 0-160-72-160-160s72-160 160-160h288v-64c0-52.8-43.2-96-96-96H240c-52.8 0-96 43.2-96 96V608c0 52.8 43.2 96 96 96h544c52.8 0 96-43.2 96-96v-64H592zM592 384m-32 0a32 32 0 1 1 64 0 32 32 0 1 1-64 0Z"  horiz-adv-x="1024" />

    
    <glyph glyph-name="home2" unicode="&#60057;" d="M704.29217375-32.18086969000001h154.85217375c36.68869594 0 66.53217375 27.75652219 66.53217469 60.8556525v351.52695656h146.79652125c29.67652219 0 30.3443475 1.66956562 9.18260906 20.24347782L646.48347781 781.77391312c-28.00695656 24.5843475-74.04521719 24.54260906-102.01043437 1e-8L109.42608688 400.44521719c-21.16173937-18.57391312-20.45217375-20.24347781 9.18260906-20.24347782H265.73913031v-351.52695656c0-32.93217375 29.76-60.8556525 66.57391313-60.8556525h154.85217375V97.25217375c0 64.82086969 47.87478281 117.95478281 108.52173937 117.95478281s108.60521719-52.96695656 108.60521719-117.95478281v-129.47478281z m263.12347875 60.8556525c0-56.84869594-49.16869594-102.59478281-108.31304344-102.59478281h-196.54956562V97.25217375c0 42.8243475-30.26086969 76.2156525-66.8243475 76.2156525-36.64695656 0-66.8243475-33.51652219-66.82434844-76.2156525v-171.21391313h-196.59130406c-59.26956562 0-108.31304344 45.99652219-108.31304344 102.59478282v309.78782625H118.56695656c-67.40869594 0-87.31826062 48.91826063-36.64695656 93.37043437L517.00869594 813.16173937c43.70086969 38.31652219 113.23826062 38.4 157.0643475 0l435.04695656-381.32869593c50.58782625-44.32695656 31.01217375-93.37043438-36.64695656-93.37043438h-105.05739094v-309.78782625z"  horiz-adv-x="1202" />

    
    <glyph glyph-name="home" unicode="&#60059;" d="M699.74857156-94.67428594V69.94285688000002c0 59.20000031-42.97142813 106.33142813-96.04571437 106.33142906-53.44000031 0-96.04571438-47.58857156-96.04571438-106.33142907v-164.66285718h-192.45714281c-52.89142875 0-95.77142812 40.68571406-95.77142812 89.50857187v362.14857094H81.09714313c-53.02857187 0-64.45714312 27.6571425-25.09714313 62.17142906L532.57142844 836.89142813c39.1771425 34.33142813 102.49142812 34.56 141.89714344-1e-8L1150.94857156 419.20000031c39.1771425-34.3771425 28.34285719-62.17142813-25.09714312-62.17142906h-137.92000031v-362.19428531c0-49.46285719-43.51999969-89.50857188-95.77142813-89.50857188h-192.41142844z"  horiz-adv-x="1219" />

    
    <glyph glyph-name="shezhi1" unicode="&#60060;" d="M985.19272719 443.25818156h-115.59272719l-11.91272719 24.61090969c-3.84 7.85454563-18.24 43.54909125-20.94545437 49.78909031a225.86181844 225.86181844 0 0 1-12.48 24.96l-18.15272719 30.37090969 25.92 24.04363594 61.7018175 57.20727281c1.83272719 1.78909125 1.83272719 2.88 0.26181844 4.36363594l-71.12727282 67.72363687c-2.66181844 2.57454563-8.02909125 2.57454563-9.94909031 0.78545438L731.05454563 643.98545438l-28.80000001 15.62181843a257.14909125 257.14909125 0 0 1-26.44363687 11.95636313c-6.37090875 2.53090875-44.11636406 16.45090875-52.36363594 20.11636406l-25.87636406 11.52V815.86909125c0-0.87272719-6.72 4.49454562-13.65818156 4.49454469h-100.53818157c-6.80727281 0-13.57090875-5.41090875-13.57090968-4.49454469v-112.75636406l-25.96363594-11.52c-8.07272719-3.57818156-45.38181844-17.36727281-51.97090875-20.02909125-10.86545437-4.36363594-19.63636406-8.29090875-26.53090969-12.04363594l-28.36363593-15.44727281-23.08363688 22.69090875-60.13090875 59.17090968a7.11272719 7.11272719 0 0 1-9.86181844 0.08727282l-70.73454562-68.07272719c-1.65818156-1.52727281-1.65818156-3.36-0.7418175-4.23272719l89.01818156-80.20363687-18.32727281-30.76363594a229.74545437 229.74545437 0 0 1-12.39272719-24.91636406c-2.66181844-6.19636406-17.14909125-42.02181844-20.98909125-49.96363594l-11.91272719-24.61090969H82.31272719c-1.22181844 0-6.67636406-6.19636406-6.67636313-11.12727281v-96.2618175c0-4.93090875 5.45454562-11.12727281 6.67636313-11.12727281H197.81818156l11.95636406-24.43636406c3.92727281-8.07272719 18.54545438-44.24727281 21.16363594-50.22545438 4.45090875-10.21090875 8.50909125-18.41454562 12.34909125-24.87272719l17.97818156-30.24-25.74545437-24-61.83272719-57.42545437c-1.74545438-1.65818156-1.74545438-2.57454563-0.08727281-4.10181844l71.12727281-67.81090875c2.66181844-2.57454563 7.85454563-2.53090875 9.94909125-0.48l81.8618175 82.90909031 28.8-15.57818156a257.45454562 257.45454562 0 0 1 26.6181825-12.04363594c5.80363594-2.31272719 43.81090875-16.36363594 52.14545438-20.07272812l25.83272718-11.56363594v-112.58181844c0 0.87272719 6.80727281-4.58181844 13.61454563-4.5818175h100.5818175c6.80727281 0 13.65818156 5.49818156 13.6581825 4.53818156v112.58181844l25.74545437 11.56363594c8.37818156 3.75272719 46.56 17.89090875 52.58181844 20.33454562 10.82181844 4.32 19.50545437 8.24727281 26.44363594 11.95636313l28.36363594 15.31636406 22.99636406-22.69090875 60-59.17090969c2.79272719-2.66181844 6.98181844-2.66181844 9.73090875 0l70.95272719 68.24727282c1.48363594 1.44 1.48363594 3.05454563 0.43636406 4.05818156l-88.75636406 80.16 18.19636406 30.72c3.84 6.45818156 7.85454563 14.66181844 12.34909125 24.87272719 2.57454563 5.93454563 17.14909125 42.06545438 21.03272719 50.09454562l11.95636312 24.52363688h115.54909125c1.17818156 0 6.67636406 6.28363594 6.67636313 11.12727281V431.91272719c0 5.01818156-5.58545437 11.34545437-6.80727188 11.34545437z m0 43.63636407c27.75272719 0 50.31272719-28.18909125 50.44363687-54.76363688v-96.2618175c0-26.48727281-22.56-54.76363594-50.31272812-54.76363687h-88.27636313c-8.29090875-17.10545438-20.07272719-52.71272719-35.08363687-78.10909032l62.31272812-56.24727281c19.85454563-18.85090875 19.98545437-49.30909125 0.34909031-68.07272719l-70.73454562-68.07272812a50.53090875 50.53090875 0 0 0-70.25454469 0l-60.43636406 59.60727281c-26.70545437-14.4-63.97090875-25.74545438-81.81818156-33.73090875v-84.30545437c0-26.48727281-29.45454563-48.17454563-57.29454563-48.17454563h-100.58181844c-27.79636406 0-57.25090875 21.6-57.25090875 48.17454563v84.30545437c-17.89090875 8.02909125-55.2 19.24363594-81.68727281 33.6l-58.90909125-59.60727281a51.75272719 51.75272719 0 0 0-71.12727281-0.43636313l-71.12727281 67.81090875a45.68727281 45.68727281 0 0 0 0 67.2l62.31272812 57.90545438c-15.09818156 25.44-26.88 61.09090875-35.21454562 78.15272719h-88.14545438C54.47272719 281.10545436999996 32 309.29454562 32 335.86909125V432.13090875c0 26.57454562 22.51636406 54.76363594 50.31272719 54.76363687h88.18909125c8.33454562 17.19272719 20.07272719 52.8 35.17090875 78.15272719l-62.4 56.29090875A46.73454562 46.73454562 0 0 0 142.96727281 689.45454562l70.69090875 67.98545438a50.79272719 50.79272719 0 0 0 70.25454563 0l60.61090875-59.60727281c26.48727281 14.4 63.70909125 25.74545438 81.64363687 33.68727281V815.86909125C426.21090875 842.48727281 455.70909125 864 483.41818156 864h100.5381825c27.84 0 57.29454562-21.46909125 57.29454469-48.13090875v-84.30545531c17.89090875-7.94181844 55.15636406-19.2 81.77454563-33.6l58.77818156 59.78181844a52.10181844 52.10181844 0 0 0 71.21454562 0.13090968l71.04-67.63636406c19.63636406-18.76363594 19.59272719-48.39272719 0-67.33090875L861.70181844 565.0909087499999c15.18545438-25.30909125 26.92363594-60.96 35.25818156-78.15272719h88.23272719z m-451.41818156-238.08c79.59272719 0 143.38909125 60.96 143.38909031 135.14181843 0 74.26909125-63.79636406 135.27272719-143.38909032 135.27272719S390.42909125 458.22545437 390.42909125 384c0-74.18181844 63.70909125-135.14181844 143.34545438-135.14181844z m-1e-8-43.63636407c-103.24363594 0-186.98181844 80.02909125-186.98181843 178.7781825 0 98.83636406 83.73818156 178.90909125 186.98181844 178.90909032s187.02545438-80.07272719 187.02545437-178.90909032c0-98.74909125-83.78181844-178.77818156-187.02545438-178.7781825z"  horiz-adv-x="1070" />

    
    <glyph glyph-name="shezhi2" unicode="&#60061;" d="M985.19272719 486.89454563h-88.23272719c-8.33454562 17.19272719-20.07272719 52.8-35.25818156 78.15272718l62.4 57.86181844a45.90545437 45.90545437 0 0 1 0 67.28727281l-71.12727282 67.68a52.10181844 52.10181844 0 0 1-71.12727281-0.17454562l-58.82181844-59.7381825c-26.61818156 14.4-63.92727281 25.65818156-81.77454562 33.6V815.86909125c0 26.61818156-29.45454563 48.13090875-57.29454469 48.13090875h-100.5381825C455.70909125 864 426.21090875 842.53090875 426.21090875 815.86909125v-84.34909125c-17.89090875-7.94181844-55.15636406-19.24363594-81.64363594-33.68727281l-60.65454562 59.60727281a50.79272719 50.79272719 0 0 1-70.25454563 0L143.01090875 689.45454562c-19.59272719-18.76363594-19.46181844-49.30909125 0.26181844-68.15999999L205.67272719 565.0909087499999c-15.05454562-25.39636406-26.79272719-60.96-35.12727282-78.15272719h-88.14545437C54.47272719 486.89454563 32 458.70545438 32 432.13090875v-96.2618175c0-26.57454562 22.51636406-54.76363594 50.31272719-54.76363688h88.18909125c8.33454562-17.01818156 20.11636406-52.71272719 35.21454562-78.15272718l-62.26909125-57.94909125a45.68727281 45.68727281 0 0 1 0-67.15636313l71.12727281-67.81090875c19.63636406-18.67636406 51.44727281-18.63272719 71.12727282 0.43636313l58.86545437 59.60727281c26.48727281-14.35636406 63.79636406-25.57090875 81.68727282-33.6v-84.30545438c0-26.57454562 29.45454563-48.17454563 57.25090874-48.17454562h100.58181844c27.84 0 57.29454562 21.68727281 57.29454563 48.17454562v84.30545438c17.84727281 8.02909125 55.11272719 19.33090875 81.81818156 33.73090875l60.43636406-59.60727281a50.53090875 50.53090875 0 0 1 70.25454469 0l70.73454562 68.07272812a46.51636406 46.51636406 0 0 1-0.34909031 68.07272719l-62.31272812 56.29090875c15.05454562 25.35272719 26.74909125 60.96 35.08363687 78.10909125h88.27636313c27.75272719 0 50.31272719 28.23272719 50.31272812 54.72V432.13090875c-0.13090875 26.57454562-22.69090875 54.76363594-50.44363687 54.76363687z m-451.41818156-281.71636407c-103.24363594 0-186.98181844 80.02909125-186.98181844 178.7781825 0 98.83636406 83.73818156 178.90909125 186.98181844 178.90909031s187.02545438-80.07272719 187.02545437-178.90909031c0-98.74909125-83.78181844-178.77818156-187.02545438-178.7781825z"  horiz-adv-x="1071" />

    
    <glyph glyph-name="sousuo" unicode="&#60066;" d="M473.844903 63.326184c201.272704 0 364.466788 162.106124 364.466788 362.034877s-163.194084 362.034876-364.466788 362.034876c-201.336702 0-364.466788-162.106124-364.466788-362.034876s163.194084-362.034876 364.466788-362.034877z m368.370647 66.045606l171.065799-169.977838a36.030694 36.030694 0 0 0 0-51.198144l-25.791065-25.599072a36.606673 36.606673 0 0 0-51.518133 0l-171.833771 170.74581c-198.392808-152.82646-482.414512-125.307458-647.400532 62.653729a468.399021 468.399021 0 0 0 25.599073 645.608597 476.14274 476.14274 0 0 0 650.280427 11.967566 468.463018 468.463018 0 0 0 49.6622-644.200648h-0.063998z"  horiz-adv-x="1024" />

    
    <glyph glyph-name="cuowu1" unicode="&#61143;" d="M828.3 111.4L556.1 383.6l271.6 271.6c0.3 0.2 0.5 0.5 0.7 0.7 11.5 11.9 11.2 30.9-0.7 42.4-11.9 11.5-30.9 11.2-42.4-0.7L513.7 426 241.4 698.3c-11.7 11.7-30.7 11.7-42.4 0s-11.7-30.7 0-42.4l272.3-272.3-272.9-272.9c-5.6-5.6-8.8-13.3-8.8-21.2 0-16.6 13.4-30 30-30 8 0 15.6 3.2 21.2 8.8l272.9 272.9L785.9 69c5.6-5.6 13.3-8.8 21.2-8.8 8 0 15.6 3.2 21.2 8.8 11.7 11.7 11.7 30.7 0 42.4z"  horiz-adv-x="1024" />

    
    <glyph glyph-name="tuichu" unicode="&#60079;" d="M760.2065 759.49285752A448.39285752 448.39285752 0 0 0 962.06364248 377.50714247999997C958.39935752 131.61428583999998 757.18507168-66 512.06364248-66H505.63507167a447.10714248 447.10714248 0 0 0-316.28571415 136.47857167A446.91428584 446.91428584 0 0 0 62.12792833 390.42857168a447.04285752 447.04285752 0 0 0 181.60714335 354.7285708 50.01428584 50.01428584 0 1 0 59.59285664-80.2285708 347.59285752 347.59285752 0 0 1-141.23571416-275.97857168 347.65714248 347.65714248 0 0 1 99-248.91428584 347.52857168 347.52857168 0 0 1 245.89285752-106.07142832 352.35 352.35 0 0 1 248.9785708 98.93571416 347.78571416 347.78571416 0 0 1 106.0714292 245.95714248A348.75 348.75 0 0 1 704.92078584 676.11428584a50.07857167 50.07857167 0 0 0 55.15714248 83.37857168zM512.06364248 333.98571416000004A50.01428584 50.01428584 0 0 0 462.04935752 384V783.98571416a50.01428584 50.01428584 0 0 0 100.0285708 0V384c0-27.64285752-22.43571416-50.01428584-50.01428584-50.01428584z"  horiz-adv-x="1024" />

    
    <glyph glyph-name="arrow-left" unicode="&#61144;" d="M272.448 423.936l399.232 399.232c22.08 22.08 57.792 22.08 79.872 0 22.016-22.016 22.08-57.792 0-79.872l-359.29600001-359.296 359.29600001-359.296c22.016-22.016 22.08-57.792 0-79.872s-57.792-22.016-79.872 0l-399.232 399.232c-22.016 22.07999999-22.016 57.792 0 79.872z"  horiz-adv-x="1024" />

    


  </font>
</defs>
</svg>
